<?xml version="1.0" encoding="UTF-8" standalone="no"?>
<!-- Created with Inkscape (http://www.inkscape.org/) -->

<svg
   xmlns:dc="http://purl.org/dc/elements/1.1/"
   xmlns:cc="http://creativecommons.org/ns#"
   xmlns:rdf="http://www.w3.org/1999/02/22-rdf-syntax-ns#"
   xmlns:svg="http://www.w3.org/2000/svg"
   xmlns="http://www.w3.org/2000/svg"
   xmlns:sodipodi="http://sodipodi.sourceforge.net/DTD/sodipodi-0.dtd"
   xmlns:inkscape="http://www.inkscape.org/namespaces/inkscape"
   width="210mm"
   height="210mm"
   viewBox="0 0 210 210"
   version="1.1"
   id="svg5196"
   inkscape:version="0.92.0 r15299"
   sodipodi:docname="icon.svg"
   inkscape:export-filename="C:\Users\Usuario\Development\ElBondi\el-bondi-web\functions\statics\img\icon.png"
   inkscape:export-xdpi="31.80444"
   inkscape:export-ydpi="31.80444">
  <defs
     id="defs5190" />
  <sodipodi:namedview
     id="base"
     pagecolor="#ffffff"
     bordercolor="#666666"
     borderopacity="1.0"
     inkscape:pageopacity="0.0"
     inkscape:pageshadow="2"
     inkscape:zoom="0.7"
     inkscape:cx="930.65789"
     inkscape:cy="374.7399"
     inkscape:document-units="mm"
     inkscape:current-layer="Layer1000"
     showgrid="false"
     inkscape:window-width="1920"
     inkscape:window-height="1017"
     inkscape:window-x="-8"
     inkscape:window-y="-8"
     inkscape:window-maximized="1"
     width="210mm" />
  <metadata
     id="metadata5193">
    <rdf:RDF>
      <cc:Work
         rdf:about="">
        <dc:format>image/svg+xml</dc:format>
        <dc:type
           rdf:resource="http://purl.org/dc/dcmitype/StillImage" />
        <dc:title></dc:title>
      </cc:Work>
    </rdf:RDF>
  </metadata>
  <g
     inkscape:label="Layer 1"
     inkscape:groupmode="layer"
     id="layer1"
     transform="translate(0,-87)">
    <g
       id="g6162"
       transform="matrix(0.51875224,0,0,0.51875224,-113.36608,37.566986)">
      <path
         inkscape:connector-curvature="0"
         id="path5741"
         style="fill:#020202;fill-opacity:0.01005025;fill-rule:evenodd;stroke:#ec6700;stroke-width:15.40234313;stroke-linecap:butt;stroke-linejoin:miter;stroke-miterlimit:4;stroke-dasharray:none;stroke-opacity:1"
         d="m 420.94489,105.83674 c 105.96379,0 191.86417,85.90067 191.86417,191.86417 0,105.96379 -85.90038,191.86417 -191.86417,191.86417 -105.96379,0 -191.86427,-85.90038 -191.86427,-191.86417 0,-105.9635 85.90048,-191.86417 191.86427,-191.86417 z" />
      <g
         id="Layer1000"
         transform="matrix(2.0496783,0,0,2.0496783,-463.47971,-138.93372)">
        <g
           id="Layer1001"
           transform="matrix(1.024781,0,0,1.024781,-13.114694,-5.3672661)"
           style="stroke-width:0.97581822">
          <g
             id="Layer1003"
             style="stroke-width:0.97581822">
            <path
               inkscape:connector-curvature="0"
               id="path5780"
               style="fill:#92948a;fill-rule:evenodd;stroke-width:0.97581822"
               d="m 497.0003,151.1741 c 9.59,-2.3035 16.2782,11.3869 19.1228,19.0395 7.1666,19.2795 9.9813,47.5073 7.2387,68.0712 -1.2242,9.179 -4.8272,24.3565 -12.5776,25.7478 -25.9697,4.6622 -39.6341,-106.6489 -13.7839,-112.8585 z m -0.4542,-5.2054 c -9.4579,1.9021 -13.8701,16.2856 -15.8124,27.1485 -4.0734,22.7819 -0.7718,53.9913 8.2083,75.0011 19.9525,46.6811 45.1487,12.2093 37.9202,-46.3421 -1.4713,-11.9186 -4.3971,-24.4044 -8.7732,-34.5737 -3.4003,-7.9018 -11.4695,-23.2597 -21.5429,-21.2338 z" />
            <path
               inkscape:connector-curvature="0"
               id="path5782"
               style="fill:#92948a;fill-rule:evenodd;stroke-width:0.97581822"
               d="m 494.7258,153.7041 c 4.1455,3.6429 12.7296,20.8011 13.2868,29.0483 -3.1391,-10.2839 -9.183,-21.5592 -15.0369,-27.6741 -0.0317,0.0853 -0.036,0.2289 -0.0334,0.2706 l 0.1072,0.854 c 0.1801,0.5002 0.4929,0.872 0.7486,1.2438 4.2805,6.2233 7.3705,11.5497 10.4105,18.9241 11.7947,28.612 10.9474,54.846 -1.0585,82.9514 3.1062,-0.4421 8.1643,-21.0841 9.2019,-24.7814 0.1165,6.5642 -2.807,17.8648 -5.7305,24.1101 -0.784,1.6752 -0.6315,1.9995 -2.1526,2.6253 l 1.564,1.1511 c 0.047,-1.9058 4.3949,-10.7346 5.4811,-14 l -3.44,13.9368 -1.5373,-0.0769 c 0.9651,0.6982 0.0359,0.4735 1.8642,0.8109 1.2162,-3.4265 3.9311,-7.2959 5.7525,-13.5863 l 3.7498,-14.728 c 0.6142,7.7268 -3.4997,22.2519 -7.096,27.9057 2.289,-0.496 1.0465,0.0851 1.953,-1.1775 -0.3024,-0.5762 -0.5304,0.3554 0.6926,-2.1845 0.4784,-0.9935 0.8434,-1.891 1.2896,-2.9626 2.6466,-6.3571 4.1085,-12.9628 5.9242,-19.7096 0.1742,6.7468 -2.3066,11.6786 -2.8414,17.156 1.1409,-0.9455 0.8461,-0.7005 1.4494,-2.3583 l 2.1366,-8.3445 c 2.4146,-12.2588 2.1854,-26.9908 0.8715,-39.3207 -0.8707,-8.1724 -2.2572,-16.2337 -4.3018,-23.9245 -2.2819,-8.5838 -4.5055,-12.7434 -7.9587,-19.5444 0.01,2.7472 5.5269,12.3622 6.1875,20.1579 l -5.7871,-14.4897 c -2.8575,-6.5138 -7.2607,-11.5889 -7.9723,-13.1367 l -1.1856,-0.3086 c 4.4499,7.1076 11.0642,17.1409 11.9754,27.6777 l -15.1195,-27.1654 c 5.4712,8.2747 11.2443,17.8485 12.5225,28.2889 z" />
            <path
               inkscape:connector-curvature="0"
               id="path5788"
               style="fill:#92948a;fill-rule:evenodd;stroke-width:0.97581822"
               d="m 427.5844,160.4256 -2.4269,2.1351 c -1.3091,1.3607 -3.4092,4.7653 -4.3789,6.6872 -2.1471,4.2558 -5.7379,16.7001 -5.6566,21.3205 -2.0658,6.3094 -1.033,28.4909 0.2646,35.5994 -1.7906,-2.4595 -5.3562,-9.5255 -7.4121,-10.7201 l 1.3551,11.8208 8.3049,8.5201 -0.5981,-4.0039 c 0.5645,0.8021 -0.0543,-0.5261 0.6368,1.2513 l 2.9837,10.7777 c 1.2781,3.9742 3.1338,7.5482 4.3972,10.9005 0.7698,-1.7617 -2.5815,-8.1124 -3.9799,-12.9813 -1.4261,-4.9656 -2.481,-9.747 -3.3057,-14.9248 -1.2756,-8.0097 -2.277,-26.0526 -0.8547,-32.7954 0.2327,-1.1038 0.159,-0.6834 0.3403,-0.9364 0.7429,-0.7758 0.4055,-0.1767 0.9454,-1.7277 l 2.4524,-12.1109 c 0.7423,-2.6008 2.828,-9.5713 4.9066,-11.0313 0.5819,-2.3624 0.8629,-0.6589 1.2733,-3.6195 0.3768,-1.6578 2.2457,-3.1123 3.3685,-5.0731 -1.9153,0.2213 -1.2707,-0.1016 -2.6159,0.9118 z" />
            <path
               inkscape:connector-curvature="0"
               id="path5790"
               style="fill:#92948a;fill-rule:evenodd;stroke-width:0.97581822"
               d="m 345.0271,200.8341 c -0.1103,4.2121 -1.2912,9.8099 -0.8737,14.4483 0.4216,4.6837 0.3949,8.959 1.2013,13.6636 -1.2218,-1.7749 -4.9252,-7.6257 -6.1648,-8.8295 l 1.4055,10.1684 c 2.3176,0.6176 2.3188,0.9313 3.5381,2.6205 0.5983,0.829 0.6604,0.9869 1.3277,1.7902 l 1.6838,1.7402 -0.8024,-7.6248 c 1.4894,8.2069 2.5956,12.5627 5.8619,20.1608 0.9371,2.1799 1.8286,3.9872 3.5832,5.5816 -1.5467,-4.7072 -6.1947,-11.1392 -7.6411,-21.4025 l -1.6959,-23.6303 c 0.2882,-0.4417 0.4105,-0.5492 0.7505,-1.5324 0.5499,-1.5894 0.3794,-2.1312 0.4405,-3.6999 0.2431,-6.2431 2.6244,-14.4043 5.3742,-19.8732 0.7766,-1.5447 2.5339,-4.6488 4.2909,-5.2265 0.9287,-0.8324 0.5098,-0.1371 0.3845,-1.4167 0.0446,-1.5453 -0.4587,-0.5242 0.0931,-1.4819 l -1.3026,0.302 c -2.3322,0.7718 -4.2264,3.6604 -5.6864,5.8569 -3.0025,4.517 -4.6276,12.9229 -5.7683,18.3852 z" />
            <path
               inkscape:connector-curvature="0"
               id="path5792"
               style="fill:#92948a;fill-rule:evenodd;stroke-width:0.97581822"
               d="m 427.1518,213.1343 -4.2573,-0.3817 c -1.3618,-4.8957 -0.5475,-13.8472 0.0631,-19.4396 0.7111,-6.5129 0.3601,-5.5154 8.875,-6.8356 2.0586,-0.3192 3.4638,-0.8179 4.8579,0.2424 3.0154,0.0376 1.2909,-0.223 1.9044,-0.726 -1.7479,-0.5255 -1.5211,-0.0412 0.1443,-0.4861 1.1687,-0.3122 1.4519,-0.1679 2.5109,-0.1174 1.1833,1.4392 0.4218,0.1607 0.7095,2.1659 0.6521,-1.2048 0.4438,-1.5674 0.3338,-3.4304 -0.1621,-0.0901 -0.3947,-0.3783 -0.5098,-0.2237 l -2.1231,-0.4525 -12.5081,1.7846 c -5.4041,0.7432 -5.4213,0.8988 -6.0103,7.0582 -1.0405,10.883 -0.6592,9.3014 -0.1926,20.8891 2.5075,0.3962 3.9323,1.1742 6.2023,-0.0472 z" />
            <path
               inkscape:connector-curvature="0"
               id="path5794"
               style="fill:#92948a;fill-rule:evenodd;stroke-width:0.97581822"
               d="m 472.2184,238.8235 c 1.2511,3.5005 2.4538,5.7631 4.0044,8.9273 0.7971,1.6268 1.2046,2.5408 2.1693,4.1182 l 2.6631,3.7814 -6.4128,-16.9895 c 0.8288,1.0503 3.2393,6.8888 4.3635,8.9206 l 5.1297,8.4303 c -0.9832,-2.91 -3.0113,-6.3673 -4.3124,-9.7452 l -3.2862,-11.0161 c 0.0714,1.3911 0.2186,0.5471 0.873,1.1986 l -4.7482,-16.4356 3.8636,19.5514 c -1.4999,-1.9516 -1.383,-2.0589 -2.2558,-4.5075 -1.7057,-4.7843 -3.1084,-11.426 -4.1711,-14.157 l 3.7513,19.2106 z" />
            <path
               inkscape:connector-curvature="0"
               id="path5796"
               style="fill:#92948a;fill-rule:evenodd;stroke-width:0.97581822"
               d="m 464.8329,240.9038 7.857,15.1699 -5.2016,-14.7424 c 0.3753,0.8865 0.5124,1.3213 0.9091,2.1943 l 4.2368,8.357 c 1.1038,1.9482 1.0532,2.078 2.6772,3.7698 l -6.3707,-17.069 c 0.0839,0.1123 0.185,0.157 0.2249,0.3555 l 1.5579,2.1017 c -1.6276,-6.5078 -5.2414,-13.3767 -6.1728,-20.5985 l 3.592,19.5776 c -1.3687,-1.8354 -1.4032,-2.1421 -2.1641,-4.4314 l -4.2515,-14.1763 4.1395,20.0121 z" />
            <path
               inkscape:connector-curvature="0"
               id="path5798"
               style="fill:#92948a;fill-rule:evenodd;stroke-width:0.97581822"
               d="m 408.0459,241.8684 8.6888,16.7648 -7.1176,-20.059 c -0.0379,3.7757 8.2479,17.3764 10.4738,21.1425 l 0.0316,-1.29 c -4.9504,-8.9262 -7.1933,-12.9926 -9.9026,-23.0366 -0.4272,-1.5837 -0.6308,-2.8732 -1.5162,-4.1551 l -3.48,-10.3558 1.8942,11.8661 c 0.7928,3.9839 2.0327,7.7104 2.7971,11.5682 z" />
            <path
               inkscape:connector-curvature="0"
               id="path5800"
               style="fill:#92948a;fill-rule:evenodd;stroke-width:0.97581822"
               d="m 429.7476,250.1146 c 1.7326,-0.5438 1.9643,-0.3825 3.8074,-1.4906 0.522,-2.6264 -1.1266,-4.0101 -2.1419,-6.5958 -1.972,-5.0215 -5.6353,-15.4913 -6.142,-20.3653 l 3.6644,19.975 c -1.5721,-2.0831 -1.7571,-3.0071 -2.331,-5.9638 -1.7116,2.3962 -1.6474,1.7749 -0.2769,5.7665 l 2.7382,7.754 c 0.5529,1.1179 0.3746,0.7151 0.6818,0.92 z" />
            <path
               inkscape:connector-curvature="0"
               id="path5802"
               style="fill:#92948a;fill-rule:evenodd;stroke-width:0.97581822"
               d="m 495.7309,210.553 c -2.5973,-2.1876 -3.0179,-5.2282 -2.4872,-8.7236 -2.3774,2.5918 -0.004,11.495 1.2226,14.0886 1.8837,3.9823 6.5155,7.0479 8.5347,0.8907 z" />
            <path
               inkscape:connector-curvature="0"
               id="path5804"
               style="fill:#92948a;fill-rule:evenodd;stroke-width:0.97581822"
               d="m 448.5389,219.9206 c 0.9431,-1.2764 0.5052,-1.3204 1.5617,-2.4067 2.3715,0.4118 4.9022,3.2352 6.0769,4.9351 l -0.5723,-5.618 c -1.6706,-0.783 -2.2796,-2.3988 -3.5604,-4.5154 -1.1091,-1.8327 -2.1075,-3.1552 -3.0664,-4.7424 -3.2343,-5.3538 0.3198,-10.1081 -0.713,-14.039 -2.5175,3.4297 0.2137,21.2486 0.2735,26.3864 z" />
            <path
               inkscape:connector-curvature="0"
               id="path5806"
               style="fill:#92948a;fill-rule:evenodd;stroke-width:0.97581822"
               d="m 372.5489,229.582 c 2.5349,0.335 2.6833,1.1029 3.988,2.8182 1.2034,1.582 2.1861,2.5609 3.0321,4.3527 0.4599,-0.8518 0.4502,0.1662 0.3944,-1.6425 -0.1049,-0.1477 -0.2036,-0.3337 -0.2721,-0.4701 -1.6249,-3.2318 -0.7725,-3.5036 -1.1604,-6.1034 l -6.5018,-9.937 c -0.0645,-0.1171 -0.174,-0.3001 -0.2287,-0.3973 l -0.5146,-0.8322 z" />
            <path
               inkscape:connector-curvature="0"
               id="path5808"
               style="fill:#92948a;fill-rule:evenodd;stroke-width:0.97581822"
               d="m 389.8962,215.6662 c -2.9631,-0.1763 -3.8155,0.7609 -4.2876,-2.1119 -0.9009,-5.4804 0.9108,-13.6979 1.7761,-19.1869 1.9711,-0.9969 8.066,-2.1237 9.8013,-1.0259 2.7247,0.1304 1.0297,0.0729 1.3262,-0.5299 0.59,-0.4155 1.3325,-0.6971 3.5981,-0.555 l -0.114,2.6568 c 1.3068,-1.7387 1.2574,-3.8795 -1.0092,-4.3073 -0.8692,-0.1641 -3.9984,0.4618 -5.042,0.6311 -3.18,0.5157 -7.2411,0.7096 -10.4891,1.6612 l -1.1674,22.2025 z" />
            <path
               inkscape:connector-curvature="0"
               id="path5810"
               style="fill:#92948a;fill-rule:evenodd;stroke-width:0.97581822"
               d="m 400.0102,242.4559 c 0.1353,3.1322 3.5564,8.9327 5.2188,11.9709 1.0923,1.9961 0.9762,2.1244 2.6884,3.8362 l -4.3392,-13.9904 c 0.0706,0.0817 0.1933,0.2276 0.3042,0.3269 -0.8751,-3.0913 -2.6015,-6.9317 -3.6918,-10.2797 -1.0671,-3.2771 -1.7328,-7.0492 -2.7547,-10.1413 l 4.1078,20.5974 z" />
            <path
               inkscape:connector-curvature="0"
               id="path5812"
               style="fill:#92948a;fill-rule:evenodd;stroke-width:0.97581822"
               d="m 362.8079,248.72 3.3477,-0.5121 c -0.197,-1.274 -0.4271,-1.9865 -0.8009,-3.2449 -0.1521,-0.5123 -0.4618,-1.2257 -0.494,-1.6803 -0.2566,-3.6225 -0.4548,-0.9762 0.8561,-2.0701 -1.4481,-5.5969 -3.9791,-10.6346 -4.7857,-16.4954 l 4.0814,21.1805 -0.5451,-0.7205 c -1.0943,-1.6702 -1.3408,-3.118 -1.9345,-5.0007 -1.5334,-4.8617 -4.3512,-11.9596 -4.8567,-17.2817 l 2.1301,13.1917 c 0.6373,3.2013 3.0822,10.3432 3.0016,12.6335 z" />
            <path
               inkscape:connector-curvature="0"
               id="path5814"
               style="fill:#92948a;fill-rule:evenodd;stroke-width:0.97581822"
               d="m 397.0066,242.9101 9.1561,17.2876 -6.1525,-17.7418 c -0.9283,-5.6215 -5.2668,-13.6329 -5.5602,-19.785 l 4.0586,21.4984 z" />
            <path
               inkscape:connector-curvature="0"
               id="path5816"
               style="fill:#92948a;fill-rule:evenodd;stroke-width:0.97581822"
               d="m 496.8057,210.5718 c 0.8453,5.9024 2.6414,5.7981 8.3124,5.2318 -2.4505,-4.9418 -1.1634,-2.7806 -2.2699,-5.6737 -0.0443,-0.1156 -0.142,-0.296 -0.181,-0.3882 -0.0387,-0.0911 -0.1813,-0.1613 -0.2113,-0.3671 -0.0296,-0.2044 -0.1368,-0.2468 -0.2263,-0.355 l -0.4958,1.8966 -0.5338,-0.9101 c -0.0163,-0.006 -0.1297,0.0234 -0.1457,0.0242 -1.0416,0.0488 0.6087,-0.0815 -0.2708,0.2391 l -0.3589,0.0277 c -0.0171,-0.003 -0.116,-0.1003 -0.1335,-0.104 l -2.5207,0.006 c -3.6771,0.9105 1.8615,0.7224 -0.9647,0.3725 z" />
            <path
               inkscape:connector-curvature="0"
               id="path5818"
               style="fill:#92948a;fill-rule:evenodd;stroke-width:0.97581822"
               d="m 394.363,243.4689 c 1.1935,3.4279 4.9414,11.9837 7.8284,14.8008 -0.7574,-2.6444 -2.5029,-5.7194 -3.6392,-8.6609 l -2.685,-9.1487 c 0.6551,1.872 0.3914,0.6009 0.9682,1.254 -0.742,-3.7296 -3.6837,-11.1274 -5.0803,-18.0356 l 4.0893,21.0365 z" />
            <path
               inkscape:connector-curvature="0"
               id="path5820"
               style="fill:#92948a;fill-rule:evenodd;stroke-width:0.97581822"
               d="m 386.0509,243.9385 8.6574,16.3321 c -0.9563,-2.6118 -5.6387,-11.876 -6.4312,-15.6246 -0.6575,-3.109 -0.3299,-1.5134 0.4724,-2.2821 -1.8512,-6.3493 -3.9072,-11.7743 -5.3767,-18.1775 l 4.0964,20.9869 z" />
            <path
               inkscape:connector-curvature="0"
               id="path5822"
               style="fill:#92948a;fill-rule:evenodd;stroke-width:0.97581822"
               d="m 481.2085,239.765 8.6574,16.2223 c -0.8847,-2.6046 -2.8018,-5.8023 -4.0515,-8.9185 l -3.1614,-10.3337 c 2.104,4.3628 1.1259,4.7018 1.9363,3.4192 l -1.9974,-7.662 c -0.3595,-0.7776 -0.3774,-0.7365 -0.7187,-1.1646 -0.7121,1.3002 -0.257,0.0668 -0.8629,-1.8938 l 1.6159,11.5443 z" />
            <path
               inkscape:connector-curvature="0"
               id="path5824"
               style="fill:#92948a;fill-rule:evenodd;stroke-width:0.97581822"
               d="m 388.6945,243.3835 9.1006,17.2619 c -0.9641,-2.6789 -2.8295,-5.7804 -4.0704,-8.8244 l -3.1779,-10.0334 c 0.9252,1.5292 0.634,0.6674 1.2955,1.2519 -1.5241,-5.6501 -5.4593,-14.366 -5.7598,-19.861 l 4.4144,22.6013 z" />
            <path
               inkscape:connector-curvature="0"
               id="path5826"
               style="fill:#92948a;fill-rule:evenodd;stroke-width:0.97581822"
               d="m 507.3424,215.7627 c -3.0269,-6.1952 -3.462,-9.5301 -1.5867,-17.0337 -2.3108,3.9213 -3.2765,4.3793 -2.5827,9.495 0.4382,3.2304 1.2815,6.6076 4.1694,7.5387 z" />
            <path
               inkscape:connector-curvature="0"
               id="path5828"
               style="fill:#92948a;fill-rule:evenodd;stroke-width:0.97581822"
               d="m 511.6342,208.1568 h -1.0582 c -0.0151,2.2645 -0.103,3.1398 -1.1499,4.4658 -2.6883,-1.0118 -2.4655,-3.3286 -2.806,-6.453 l -0.8306,-3.2738 c -0.6099,0.7208 -0.4655,-1.1196 -0.5809,1.3978 0.1296,3.295 0.6317,10.1687 4.0272,11.3185 z" />
            <path
               inkscape:connector-curvature="0"
               id="path5830"
               style="fill:#92948a;fill-rule:evenodd;stroke-width:0.97581822"
               d="m 450.6552,254.2604 c 0.7634,1.7736 2.8588,3.3678 3.4426,3.2691 l 1.44,-0.8211 0.8566,1.5472 c 0.0934,-0.0925 0.2467,-0.3752 0.286,-0.2715 0.0518,0.1376 0.1673,-0.1943 0.5259,-0.4075 1.7221,-1.0239 -1.884,0.9239 0.656,-0.283 0.0344,-0.0163 0.165,-0.0643 0.1977,-0.0808 l 0.8782,-0.6226 c -1.1087,-1.4686 -0.6734,-1.8165 -2.3693,-2.9291 l -1.5569,0.9563 z" />
            <path
               inkscape:connector-curvature="0"
               id="path5832"
               style="fill:#92948a;fill-rule:evenodd;stroke-width:0.97581822"
               d="m 451.393,243.4271 3.0799,7.0115 2.8145,2.2594 c -0.7422,-2.0621 -2.0434,-4.5892 -3.06,-6.9926 -1.318,-3.1159 -1.746,-5.9524 -3.2522,-7.5924 0.2266,1.7035 0.4357,1.852 0.8037,3.3183 0.4681,1.8654 0.8501,1.3958 -0.3859,1.9958 z" />
            <path
               inkscape:connector-curvature="0"
               id="path5834"
               style="fill:#92948a;fill-rule:evenodd;stroke-width:0.97581822"
               d="m 435.7294,239.7383 3.9519,8.1881 c 0.1651,-0.9108 0.0858,-0.9773 -0.2925,-2.1141 -1.2524,-3.7626 -1.1891,-4.0201 -2.064,-8.0463 0.1525,0.1543 0.4056,0.1144 0.4935,0.4244 l 1.1007,1.1991 c -1.6179,-4.4764 -5.0032,-14.0301 -5.2616,-18.2188 l 3.649,20.0087 z" />
            <path
               inkscape:connector-curvature="0"
               id="path5836"
               style="fill:#92948a;fill-rule:evenodd;stroke-width:0.97581822"
               d="m 451.6649,282.8662 c -1.1748,1.0718 -3.3035,2.9515 -5.1162,3.8463 3.6976,-0.2691 7.8705,-1.5188 9.3709,-3.7512 -1.1614,-0.383 -2.1283,-0.2149 -4.2547,-0.0951 z" />
            <path
               inkscape:connector-curvature="0"
               id="path5838"
               style="fill:#92948a;fill-rule:evenodd;stroke-width:0.97581822"
               d="m 381.3491,275.7995 c -0.8988,-0.7667 -0.3936,-0.338 -1.168,-0.4993 -1.1042,-0.2298 -0.1281,0.21 -1.4219,-0.3616 -1.2777,2.0724 -2.8469,2.6026 -4.404,4.1051 3.271,-0.1604 5.8247,-0.9674 6.9939,-3.2442 z" />
            <path
               inkscape:connector-curvature="0"
               id="path5840"
               style="fill:#92948a;fill-rule:evenodd;stroke-width:0.97581822"
               d="m 376.8941,252.8658 0.8932,1.14 3.1749,0.5121 c 0.0151,2e-4 0.762,0.4535 2.3483,-0.4694 l -0.1602,0.4472 c -0.9323,-1.833 -0.6333,-1.6234 -2.2787,-2.5302 0.1263,1.1633 1.2706,1.3753 -1.4355,1.3661 -1.064,-0.004 -1.2478,0.0622 -2.542,-0.4658 z" />
          </g>
          <g
             id="Layer1002"
             style="stroke-width:0.97581822">
            <path
               inkscape:connector-curvature="0"
               id="path5743"
               style="fill:#6b6b64;fill-rule:evenodd;stroke-width:0.97581822"
               d="m 455.3855,187.6745 -0.4611,19.2849 c 0.0114,1.4748 0.4811,4.0902 0.6355,6.2599 0.5273,7.407 2.1663,16.5615 3.9544,23.5079 1.7423,6.7689 4.699,16.3584 8.7911,21.5647 1.3482,1.7153 1.1871,2.2352 2.7447,4.0642 0.0696,0.0817 0.1842,0.1847 0.2533,0.2668 l 0.4782,0.565 c 3.0252,4.1334 -0.6485,0.6474 4.2518,4.1259 0.0901,0.0639 0.205,0.1627 0.2951,0.2274 1.6277,1.1664 2.8146,1.9955 4.4061,1.4845 l -0.7984,-0.1063 c -3.1078,-1.0376 0.5095,0.2902 -1.8643,-1.0147 -4.115,-2.2619 -0.9481,-1.3981 -3.2022,-3.0922 -1.3037,-0.9797 -0.5912,0.3519 -2.0751,-1.0773 -1.7039,-1.6409 0.1162,-0.3 -1.4439,-2.8175 l -0.683,-0.8934 c -2.2934,-2.8174 -1.0071,-1.1439 -2.6876,-4.0684 -2.1852,-3.8032 -7.0511,-14.7317 -6.3342,-18.7128 0.0731,-0.1172 0.1412,-0.4548 0.1547,-0.3845 0.0217,0.1131 0.0839,-2.3298 -0.3325,-3.8305 -4.3321,-15.6105 -4.6244,-40.1634 -1.3617,-56.1151 0.8503,-4.1572 3.4797,-14.1467 5.8588,-16.8531 0.798,-1.4759 1.6243,-2.6968 2.2561,-4.3013 0.6715,-1.3337 1.1065,-1.8081 2.1049,-2.9657 1.5539,-1.8019 1.2264,-1.5382 1.8919,-2.978 l -1.6162,0.5654 c -2.1009,1.825 -4.841,4.0175 -6.5446,6.6922 -1.8245,2.8645 -2.9913,5.3778 -4.1808,8.9449 -2.4635,7.3886 -3.8033,13.8571 -4.491,21.6571 z" />
            <path
               inkscape:connector-curvature="0"
               id="path5745"
               style="fill:#6b6b64;fill-rule:evenodd;stroke-width:0.97581822"
               d="m 388.4332,169.0875 c 1.6862,1.0905 0.9149,-0.1486 -0.0408,1.0887 -2.5893,3.353 -4.1693,3.6896 -6.6411,10.7974 -2.0029,5.7598 -2.7468,9.7197 -3.7504,15.6889 -1.8849,8.6346 -0.6957,23.3647 0.53,31.8744 0.3879,2.5998 -0.4645,2.8716 1.1604,6.1034 0.0685,0.1364 0.1672,0.3224 0.2721,0.4701 0.7799,2.199 1.5446,5.6221 2.3367,8.2157 0.8316,2.7235 2.0204,5.6566 3.021,8.0232 1.1351,2.6843 2.4681,4.5415 3.9725,6.9865 0.367,0.5967 0.5787,0.9953 1.0639,1.5518 1.8406,2.1112 2.9033,3.2727 5.3674,4.5445 l -0.9318,-1.431 c -0.004,-0.005 -0.7793,-0.894 -0.8665,-0.994 -0.4075,-0.4672 -1.1674,-1.3748 -1.4488,-1.6457 l -0.558,-0.4728 c -0.0815,-0.0692 -0.213,-0.1543 -0.2956,-0.2232 -2.2383,-1.8695 -3.3843,-4.8642 -4.3587,-6.7646 -0.1754,-0.342 -0.812,-2.1691 -0.8087,-2.2606 0.0688,-1.9053 -0.9584,0.0999 0.5567,-0.7225 l 0.5104,-0.1096 -2.2164,-7.8636 c -1.0506,-5.1132 -3.2523,-9.3995 -4.2193,-14.7171 -0.8915,-4.9031 -1.0638,-10.6064 -1.1766,-16.1353 -0.1582,-7.7477 1.1115,-25.2621 5.1947,-30.6182 0.3488,-2.4064 1.7955,-4.6234 2.8402,-6.0041 0.7004,-0.9259 1.4086,-1.9355 2.0545,-2.5912 1.1332,-1.1506 0.9599,-0.4388 2.1341,-2.1351 l -0.217,-0.5646 c -0.7334,-1.2963 1.1208,-0.122 -0.6399,-0.818 -1.7211,-0.6805 -2.8247,0.7142 -2.845,0.7266 z" />
            <path
               inkscape:connector-curvature="0"
               id="path5747"
               style="fill:#6b6b64;fill-rule:evenodd;stroke-width:0.97581822"
               d="m 359.3225,216.9828 -0.1181,-0.6669 c -2.0004,0.2652 -3.8574,0.3008 -5.5818,-0.5606 l 0.2897,0.0435 0.9622,-15.1843 c 1.3019,-0.9606 4.486,-1.571 5.8867,-0.7529 0.4666,-0.1196 1.347,-0.4108 1.7733,-0.4446 2.4491,-0.1936 1.4504,0.1561 1.8661,0.4019 l 1.0589,-1.3886 1.3472,0.5432 -0.3731,-1.647 -12.4756,1.797 c -1.364,3.2164 -2.5723,15.2891 -0.4067,17.9685 2.2834,0.8959 4.0172,0.6457 5.7712,-0.1092 z" />
            <path
               inkscape:connector-curvature="0"
               id="path5749"
               style="fill:#6b6b64;fill-rule:evenodd;stroke-width:0.97581822"
               d="m 437.3055,247.9948 c 2.1177,0.2292 3.1527,-0.047 4.9064,-0.2784 -0.5217,-1.4901 -1.0186,-2.6594 -1.8274,-4.2913 -0.7189,-1.451 -1.3078,-2.3879 -1.4655,-4.0356 l -1.1007,-1.1991 c -0.0879,-0.31 -0.341,-0.2701 -0.4935,-0.4244 0.8749,4.0262 0.8116,4.2837 2.064,8.0463 0.3783,1.1368 0.4576,1.2033 0.2925,2.1141 l -3.9519,-8.1881 c 0.0627,-1.7586 -0.7751,-3.1986 -1.9762,-4.2931 z" />
            <path
               inkscape:connector-curvature="0"
               id="path5751"
               style="fill:#6b6b64;fill-rule:evenodd;stroke-width:0.97581822"
               d="m 434.4542,248.5605 c 1.7696,-0.1159 2.0907,0.2546 2.8513,-0.5657 -1.3298,-0.6201 -4.5915,-9.3707 -5.4688,-11.7981 -1.6071,3.7298 1.8175,8.5589 2.6175,12.3638 z" />
            <path
               inkscape:connector-curvature="0"
               id="path5753"
               style="fill:#6b6b64;fill-rule:evenodd;stroke-width:0.97581822"
               d="m 447.5867,247.6591 c 1.2601,0.8518 1.8081,0.6109 3.5971,0.9105 -0.5999,-2.2748 -3.0321,-6.5904 -4.1414,-9.7787 l -1.4289,-2.5953 c -0.0675,-0.2653 -0.2849,-0.2351 -0.4264,-0.3538 l 3.1508,11.335 z" />
            <path
               inkscape:connector-curvature="0"
               id="path5755"
               style="fill:#6b6b64;fill-rule:evenodd;stroke-width:0.97581822"
               d="m 380.8876,258.1644 0.2117,-1.0312 0.9332,1.0112 c 0.99,-2.4051 0.551,-0.8351 2.3652,-1.971 -0.2976,-1.1938 -0.2099,-1.0475 -1.0872,-2.1249 -1.5863,0.9229 -2.3332,0.4696 -2.3483,0.4694 l -3.1749,-0.5121 z" />
            <path
               inkscape:connector-curvature="0"
               id="path5757"
               style="fill:#6b6b64;fill-rule:evenodd;stroke-width:0.97581822"
               d="m 358.6242,250.6939 c 1.8803,-0.7301 1.043,-0.2068 1.8422,-1.243 -0.5344,-0.5011 -1.7217,-3.7116 -2.0483,-4.4967 -1.1981,-2.8793 -0.8592,-3.3399 -2.6685,-4.9086 z" />
            <path
               inkscape:connector-curvature="0"
               id="path5759"
               style="fill:#6b6b64;fill-rule:evenodd;stroke-width:0.97581822"
               d="m 360.716,249.5446 c 0.1675,-0.0531 0.4193,-0.2884 0.5043,-0.1536 0.0816,0.129 0.3714,-0.1173 0.4747,-0.1712 1.4713,-0.7681 0.3604,-0.1231 1.0921,-0.7005 -1.3777,-2.4983 -2.9527,-7.4477 -3.446,-8.3033 -0.5175,-0.8979 -0.3517,-0.4926 -0.9073,-1.0591 z" />
            <path
               inkscape:connector-curvature="0"
               id="path5761"
               style="fill:#6b6b64;fill-rule:evenodd;stroke-width:0.97581822"
               d="m 369.038,247.6429 1.6092,-0.012 c -0.587,-2.9121 -2.4593,-5.9055 -3.1497,-8.9644 -1.3718,2.6611 0.4258,6.5406 1.5405,8.9764 z" />
            <path
               inkscape:connector-curvature="0"
               id="path5763"
               style="fill:#6b6b64;fill-rule:evenodd;stroke-width:0.97581822"
               d="m 374.3009,247.4807 c 0,0.8131 1.3846,0.601 2.4751,0.7295 l -2.6823,-6.9152 -1.1883,-1.8699 c -0.0615,-0.2578 -0.263,-0.244 -0.3943,-0.3662 z" />
            <path
               inkscape:connector-curvature="0"
               id="path5765"
               style="fill:#6b6b64;fill-rule:evenodd;stroke-width:0.97581822"
               d="m 366.1556,248.2079 c 0.1404,-0.014 1.7088,-0.0626 1.8338,-0.0909 1.0295,-0.2329 0.7035,-0.1686 1.0486,-0.4741 l -1.0799,-0.2345 -2.2413,-6.1958 c -1.3109,1.0939 -1.1127,-1.5524 -0.8561,2.0701 0.0322,0.4546 0.3419,1.168 0.494,1.6803 0.3738,1.2584 0.6039,1.9709 0.8009,3.2449 z" />
            <path
               inkscape:connector-curvature="0"
               id="path5767"
               style="fill:#6b6b64;fill-rule:evenodd;stroke-width:0.97581822"
               d="m 371.6983,247.5546 2.0195,0.0507 c -1.0878,-3.0145 -2.1217,-6.1872 -3.897,-7.6738 z" />
            <path
               inkscape:connector-curvature="0"
               id="path5769"
               style="fill:#6b6b64;fill-rule:evenodd;stroke-width:0.97581822"
               d="m 451.6649,282.8662 c 2.1264,-0.1198 3.0933,-0.2879 4.2547,0.0951 0.5941,-0.5169 0.7095,0.2267 0.4993,-0.94 0.0255,-0.9859 0.2054,-0.3675 -0.2295,-1.437 l -0.6799,0.5316 c -0.525,0.22 -1.0313,0.2041 -1.539,-0.1045 -0.8047,0.6531 -0.5845,0.2613 -1.0854,-0.2817 -0.8037,1.3214 -0.5359,0.3721 -1.2202,2.1365 z" />
            <path
               inkscape:connector-curvature="0"
               id="path5771"
               style="fill:#6b6b64;fill-rule:evenodd;stroke-width:0.97581822"
               d="m 369.6039,272.4643 c -1.7762,0.5709 -0.4003,0.7132 0,1.2344 1.5159,-2.3166 0.4136,-0.5036 0,-1.2344 z" />
            <path
               inkscape:connector-curvature="0"
               id="path5773"
               style="fill:#6b6b64;fill-rule:evenodd;stroke-width:0.97581822"
               d="m 363.8966,271.1052 c -1.7128,0.5921 -0.6409,-0.5836 -1.1442,1.2206 1.9465,-0.4886 0.6003,0.4651 1.1442,-1.2206 z" />
            <path
               inkscape:connector-curvature="0"
               id="path5775"
               style="fill:#6b6b64;fill-rule:evenodd;stroke-width:0.97581822"
               d="m 371.2016,257.7243 c 1.6612,-0.5522 0.5678,0.5396 1.1372,-1.2481 -1.956,0.5705 -0.6524,-0.4623 -1.1372,1.2481 z" />
            <path
               inkscape:connector-curvature="0"
               id="path5777"
               style="fill:#6b6b64;fill-rule:evenodd;stroke-width:0.97581822"
               d="m 365.42,256.3538 c 0.0731,-0.1186 0.2527,-0.4316 0.246,-0.3379 -10e-4,0.0159 0.3512,-0.2198 -0.246,-0.9117 -0.308,0.4139 -1.6681,0.3162 0,1.2496 z" />
          </g>
          <g
             id="Layer1004"
             style="stroke-width:0.97581822">
            <path
               inkscape:connector-curvature="0"
               id="path5843"
               style="fill:#44433e;fill-rule:evenodd;stroke-width:0.97581822"
               d="m 491.4549,156.7267 c -14.5792,16.6619 -4.6259,91.0522 10.5249,102.3856 l 9.3238,-43.9207 -6.7533,1.5029 c -0.7998,0.4373 -2.1365,3.3129 -3.5397,4.0003 -2.1839,1.07 -4.0926,-0.1592 -5.2035,-1.4093 -8.4897,-9.553 -2.2665,-33.7159 6.6118,-20.2269 l 7.2763,-0.4148 c -4.2597,-13.909 -5.455,-21.2308 -12.2161,-33.3215 -0.9748,-1.7433 -4.1352,-7.5577 -6.0242,-8.5956 z" />
            <path
               inkscape:connector-curvature="0"
               id="path5845"
               style="fill:#44433e;fill-rule:evenodd;stroke-width:0.97581822"
               d="m 477.41,236.4491 c -0.6544,-0.6515 -0.8016,0.1925 -0.873,-1.1986 l 3.2862,11.0161 c 1.3011,3.3779 3.3292,6.8352 4.3124,9.7452 l -5.1297,-8.4303 c -1.1242,-2.0318 -3.5347,-7.8703 -4.3635,-8.9206 l 6.4128,16.9895 -2.6631,-3.7814 c -0.9647,-1.5774 -1.3722,-2.4914 -2.1693,-4.1182 -1.5506,-3.1642 -2.7533,-5.4268 -4.0044,-8.9273 -0.385,-1.7775 0.001,-0.418 -0.8041,-1.2267 0.3727,6.0657 4.7574,13.4011 6.7956,18.273 -1.679,-3.2399 -6.933,-10.9295 -7.4864,-14.8292 l -1.5579,-2.1017 c -0.0399,-0.1985 -0.141,-0.2432 -0.2249,-0.3555 l 6.3707,17.069 c -1.624,-1.6918 -1.5734,-1.8216 -2.6772,-3.7698 l -4.2368,-8.357 c -0.3967,-0.873 -0.5338,-1.3078 -0.9091,-2.1943 l 5.2016,14.7424 -7.857,-15.1699 5.0096,15.3951 c -2.4554,-5.1598 -4.2448,-8.3218 -5.9469,-13.7712 -0.3109,-0.995 -0.5206,-2.0235 -0.8085,-2.8263 -0.5973,-1.6646 -0.6527,-1.5816 -1.4412,-2.4583 -0.7169,3.9811 4.149,14.9096 6.3342,18.7128 1.6805,2.9245 0.3942,1.251 2.6876,4.0684 l 0.683,0.8934 c 1.5601,2.5175 -0.26,1.1766 1.4439,2.8175 1.4839,1.4292 0.7714,0.0976 2.0751,1.0773 2.2541,1.6941 -0.9128,0.8303 3.2022,3.0922 2.3738,1.3049 -1.2435,-0.0229 1.8643,1.0147 l 22.8336,0.4806 -5.7511,-5.2872 c -3.5246,-3.6314 -9.0158,-13.9751 -10.4583,-19.2899 -0.2194,-0.8084 -0.3062,-1.5764 -0.6012,-2.4024 l -1.3699,-2.2662 c -0.8104,1.2826 0.1677,0.9436 -1.9363,-3.4192 l 3.1614,10.3337 c 1.2497,3.1162 3.1668,6.3139 4.0515,8.9185 l -8.6574,-16.2223 -2.0846,-5.7493 c 0.207,6.952 4.9595,15.666 7.4464,21.3787 -2.0713,-3.7521 -8.5448,-14.0991 -9.1603,-18.9453 z" />
            <path
               inkscape:connector-curvature="0"
               id="path5847"
               style="fill:#44433e;fill-rule:evenodd;stroke-width:0.97581822"
               d="m 391.8423,243.0395 c -0.6615,-0.5845 -0.3703,0.2773 -1.2955,-1.2519 l 3.1779,10.0334 c 1.2409,3.044 3.1063,6.1455 4.0704,8.8244 l -9.1006,-17.2619 0.055,-1.0196 c -0.8023,0.7687 -1.1299,-0.8269 -0.4724,2.2821 0.7925,3.7486 5.4749,13.0128 6.4312,15.6246 l -8.6574,-16.3321 -0.7434,-1.994 2.2164,7.8636 -0.5104,0.1096 c -1.5151,0.8224 -0.4879,-1.1828 -0.5567,0.7225 -0.003,0.0915 0.6333,1.9186 0.8087,2.2606 0.9744,1.9004 2.1204,4.8951 4.3587,6.7646 0.0826,0.0689 0.2141,0.154 0.2956,0.2232 l 0.558,0.4728 c 0.2814,0.2709 1.0413,1.1785 1.4488,1.6457 0.0872,0.1 0.8623,0.9887 0.8665,0.994 l 0.9318,1.431 c 1.2577,1.8785 0.6333,0.2996 2.1165,2.0918 3.2586,-1.2006 -1.5942,-0.0926 1.5688,-1.046 0.7353,0.987 1.6658,0.5511 3.1379,0.3578 l 18.4275,0.7487 c 0.1281,-1.7535 0.4424,-2.7481 0.7316,-4.4994 0.519,-3.1437 -0.7024,-3.0428 -1.5847,-3.6583 l -0.0316,1.29 c -2.2259,-3.7661 -10.5117,-17.3668 -10.4738,-21.1425 l 7.1176,20.059 -8.6888,-16.7648 5.3667,16.1619 -4.9495,-8.8593 c -1.4869,-2.8491 -3.0372,-7.9253 -4.4596,-9.4402 l 7.7185,20.2724 -7.8396,-15.4037 c -0.1109,-0.0993 -0.2336,-0.2452 -0.3042,-0.3269 l 4.3392,13.9904 c -1.7122,-1.7118 -1.5961,-1.8401 -2.6884,-3.8362 -1.6624,-3.0382 -5.0835,-8.8387 -5.2188,-11.9709 l 6.1525,17.7418 -9.1561,-17.2876 -0.1712,-1.196 c -0.5768,-0.6531 -0.3131,0.618 -0.9682,-1.254 l 2.685,9.1487 c 1.1363,2.9415 2.8818,6.0165 3.6392,8.6609 -2.887,-2.8171 -6.6349,-11.3729 -7.8284,-14.8008 l -2.0444,-5.7671 c 0.2531,6.7462 5.3573,16.9573 7.9289,22.3447 -1.6041,-3.4373 -8.194,-12.762 -8.4052,-17.007 z" />
            <path
               inkscape:connector-curvature="0"
               id="path5849"
               style="fill:#44433e;fill-rule:evenodd;stroke-width:0.97581822"
               d="m 455.2824,190.0487 c 0.0599,4.258 -0.6564,8.9037 -0.5169,13.7226 0.1253,4.3238 0.4274,8.7168 0.8397,13.0597 l 0.5723,5.618 c -1.1747,-1.6999 -3.7054,-4.5233 -6.0769,-4.9351 -1.0565,1.0863 -0.6186,1.1303 -1.5617,2.4067 1.5905,11.9186 5.0877,22.7353 10.0559,32.402 3.6807,7.1619 13.0198,20.3415 23.7036,18.4611 l -1.5638,-1.758 c -1.5915,0.511 -2.7784,-0.3181 -4.4061,-1.4845 -0.0901,-0.0647 -0.205,-0.1635 -0.2951,-0.2274 -4.9003,-3.4785 -1.2266,0.007 -4.2518,-4.1259 l -0.4782,-0.565 c -0.0691,-0.0821 -0.1837,-0.1851 -0.2533,-0.2668 -1.5576,-1.829 -1.3965,-2.3489 -2.7447,-4.0642 -4.0921,-5.2063 -7.0488,-14.7958 -8.7911,-21.5647 -1.7881,-6.9464 -3.4271,-16.1009 -3.9544,-23.5079 -0.1544,-2.1697 -0.6241,-4.7851 -0.6355,-6.2599 l 0.4611,-19.2849 z" />
            <path
               inkscape:connector-curvature="0"
               id="path5851"
               style="fill:#44433e;fill-rule:evenodd;stroke-width:0.97581822"
               d="m 494.7258,153.7041 15.9173,27.6389 c -1.2782,-10.4404 -7.0513,-20.0142 -12.5225,-28.2889 l 15.1195,27.1654 c -0.9112,-10.5368 -7.5255,-20.5701 -11.9754,-27.6777 -0.8984,-0.4786 -2.123,-0.6306 -3.4689,-0.4778 -1.1756,0.1334 -0.4098,-0.156 -1.6402,0.4496 -2.3102,1.1372 -0.7573,0.3456 -1.4298,1.1905 z" />
            <path
               inkscape:connector-curvature="0"
               id="path5853"
               style="fill:#44433e;fill-rule:evenodd;stroke-width:0.97581822"
               d="m 425.0541,254.7142 c -1.2634,-3.3523 -3.1191,-6.9263 -4.3972,-10.9005 l -2.9837,-10.7777 c -0.6911,-1.7774 -0.0723,-0.4492 -0.6368,-1.2513 l 0.5981,4.0039 -8.3049,-8.5201 c 1.4235,6.4309 2.6231,11.7 4.9692,17.5735 1.5537,3.8896 5.6788,12.4832 8.2114,14.2096 z" />
            <path
               inkscape:connector-curvature="0"
               id="path5855"
               style="fill:#44433e;fill-rule:evenodd;stroke-width:0.97581822"
               d="m 383.9355,254.1416 c 0.1629,0.1028 0.1462,-0.2191 0.8816,0.8062 0.0575,0.0804 0.5138,0.9014 0.5569,0.9922 0.5349,1.1267 0.5662,1.4927 0.8634,2.7394 1.3203,2.5732 0.9625,3.5863 5.6469,6.4895 1.2645,0.7837 2.6264,1.4942 4.3764,1.928 0.4265,0.1058 2.2893,0.4412 2.6781,0.3672 l 1.1189,-1.7553 2.4904,0.1269 c -1.4721,0.1933 -2.4026,0.6292 -3.1379,-0.3578 -3.163,0.9534 1.6898,-0.1546 -1.5688,1.046 -1.4832,-1.7922 -0.8588,-0.2133 -2.1165,-2.0918 -2.4641,-1.2718 -3.5268,-2.4333 -5.3674,-4.5445 -0.4852,-0.5565 -0.6969,-0.9551 -1.0639,-1.5518 -1.5044,-2.445 -2.8374,-4.3022 -3.9725,-6.9865 -1.0006,-2.3666 -2.1894,-5.2997 -3.021,-8.0232 -0.7921,-2.5936 -1.5568,-6.0167 -2.3367,-8.2157 0.0558,1.8087 0.0655,0.7907 -0.3944,1.6425 -0.846,-1.7918 -1.8287,-2.7707 -3.0321,-4.3527 -1.3047,-1.7153 -1.4531,-2.4832 -3.988,-2.8182 1.3322,4.9514 2.1093,9.0853 3.9186,13.8691 0.7096,1.8758 1.698,4.8705 2.8406,6.048 1.9831,2.0433 2.8727,1.2908 4.6274,4.6425 z" />
            <path
               inkscape:connector-curvature="0"
               id="path5857"
               style="fill:#44433e;fill-rule:evenodd;stroke-width:0.97581822"
               d="m 340.5954,230.2849 c 0.6821,5.5111 2.7523,11.1879 4.9003,15.9045 1.8764,4.1205 5.6259,10.4182 8.572,12.0063 0.4156,-1.3124 1.1278,-2.675 1.72,-3.6423 -1.7546,-1.5944 -2.6461,-3.4017 -3.5832,-5.5816 -3.2663,-7.5981 -4.3725,-11.9539 -5.8619,-20.1608 l 0.8024,7.6248 -1.6838,-1.7402 c -0.6673,-0.8033 -0.7294,-0.9612 -1.3277,-1.7902 -1.2193,-1.6892 -1.2205,-2.0029 -3.5381,-2.6205 z" />
            <path
               inkscape:connector-curvature="0"
               id="path5859"
               style="fill:#44433e;fill-rule:evenodd;stroke-width:0.97581822"
               d="m 436.0148,261.1355 c 8.3607,-3.5073 13.8965,11.0006 5.4698,14.5538 -8.2827,3.4928 -14.0049,-10.9735 -5.4698,-14.5538 z m -4.7263,2.0127 -1.96,-0.8388 c 1.5132,2.5041 1.3413,-0.992 1.0523,2.3181 -0.1832,2.0981 -1.7377,7.0212 2.6368,11.1857 4.1855,3.9847 10.341,2.9609 13.106,-1.3546 1.2359,-1.9291 1.774,-5.0982 1.3146,-7.7329 -0.3303,-1.8947 -1.0553,-3.4251 -2.1921,-4.6981 -4.2616,-4.7718 -9.8985,-4.4932 -12.9729,-0.817 -0.8766,1.0481 -0.5147,0.007 -0.9847,1.9376 z" />
            <path
               inkscape:connector-curvature="0"
               id="path5861"
               style="fill:#44433e;fill-rule:evenodd;stroke-width:0.97581822"
               d="m 361.9255,264.4346 c -0.5433,-8.315 10.8751,-8.2473 11.2104,0.0673 0.3339,8.2764 -10.6792,8.0622 -11.2104,-0.0673 z m 1.9711,6.6706 c 4.8702,3.4017 7.4745,-0.0191 11.0579,-1.9639 -0.0796,-0.0716 -0.2159,-0.2932 -0.2346,-0.2194 -0.0181,0.0715 -0.1835,-0.1878 -0.2043,-0.2353 -0.0203,-0.0459 -0.1355,-0.1984 -0.154,-0.2592 -0.2621,-0.8564 -0.1539,-0.326 -0.0119,-1.4309 0.3852,-2.9953 0.6816,-7.1647 -3.1481,-9.2722 -2.3542,-1.1399 -3.4679,-1.9547 -6.4681,-0.8816 -1.7046,0.6099 -1.6397,0.8236 -2.6135,1.7488 -0.0756,0.0717 -0.1761,0.2004 -0.2495,0.2679 -0.0689,0.0634 -0.1765,0.1863 -0.2444,0.2429 l -1.5195,0.6256 c 2.0466,1.8413 -2.155,7.7666 3.79,11.3773 z" />
            <path
               inkscape:connector-curvature="0"
               id="path5863"
               style="fill:#44433e;fill-rule:evenodd;stroke-width:0.97581822"
               d="m 492.9757,155.0783 c 5.8539,6.1149 11.8978,17.3902 15.0369,27.6741 -0.5572,-8.2472 -9.1413,-25.4054 -13.2868,-29.0483 -1.068,0.3241 -0.344,-0.214 -1.118,0.4605 -0.6969,0.6072 -0.2738,0.2515 -0.6321,0.9137 z" />
            <path
               inkscape:connector-curvature="0"
               id="path5865"
               style="fill:#44433e;fill-rule:evenodd;stroke-width:0.97581822"
               d="m 510.0222,160.3189 c -0.591,-2.6822 -0.1568,-1.2688 -1.4305,-2.4469 -0.8927,-0.8257 -0.9414,-0.8704 -1.8378,-1.8267 -1.1604,-1.2378 -2.4028,-2.2765 -4.3036,-3.1949 0.7116,1.5478 5.1148,6.6229 7.9723,13.1367 l 5.7871,14.4897 c -0.6606,-7.7957 -6.178,-17.4107 -6.1875,-20.1579 z" />
            <path
               inkscape:connector-curvature="0"
               id="path5867"
               style="fill:#44433e;fill-rule:evenodd;stroke-width:0.97581822"
               d="m 468.2391,272.7589 c 0.1352,-0.009 1.9246,-0.0605 1.9773,-0.0678 1.5996,-0.2209 -1.9334,0.6305 0.917,-0.1565 2.1759,-0.6007 0.8206,-0.3125 1.3281,-0.6049 l 2.2183,-1.1239 -7.5162,-3.6085 0.5572,5.1649 c 0.062,0.0517 0.3733,0.3003 0.5183,0.3967 z" />
            <path
               inkscape:connector-curvature="0"
               id="path5869"
               style="fill:#44433e;fill-rule:evenodd;stroke-width:0.97581822"
               d="m 427.5466,252.1361 c 1.2113,-0.662 0.5028,0.8515 1.5534,-1.5942 -0.9112,-2.2469 -5.2206,-12.5731 -6.1341,-13.8412 0.3588,5.1861 3.5578,10.5692 4.5807,15.4354 z" />
            <path
               inkscape:connector-curvature="0"
               id="path5871"
               style="fill:#44433e;fill-rule:evenodd;stroke-width:0.97581822"
               d="m 463.4009,267.0659 4.3062,-0.4973 -5.9194,-7.0358 z" />
            <path
               inkscape:connector-curvature="0"
               id="path5873"
               style="fill:#44433e;fill-rule:evenodd;stroke-width:0.97581822"
               d="m 462.9363,272.1254 c 2.2328,-0.1484 4.109,0.1026 4.0488,-2.4488 -0.0553,-2.348 -1.5146,-2.1322 -3.6504,-2.1922 z" />
            <path
               inkscape:connector-curvature="0"
               id="path5875"
               style="fill:#44433e;fill-rule:evenodd;stroke-width:0.97581822"
               d="m 452.2177,249.1194 2.2552,1.3192 -3.0799,-7.0115 -2.6326,-6.8251 c -0.1398,3.4014 2.2589,9.5026 3.4573,12.5174 z" />
            <path
               inkscape:connector-curvature="0"
               id="path5877"
               style="fill:#44433e;fill-rule:evenodd;stroke-width:0.97581822"
               d="m 391.7993,269.6216 1.9,-0.2582 c 0.1037,-0.0684 0.259,-0.2975 0.3173,-0.195 0.0612,0.1081 0.2604,-0.1494 0.3488,-0.1784 l 2.6829,-0.5493 -6.4398,-2.7247 -0.2497,3.5728 z" />
            <path
               inkscape:connector-curvature="0"
               id="path5879"
               style="fill:#44433e;fill-rule:evenodd;stroke-width:0.97581822"
               d="m 445.8321,247.7732 1.7546,-0.1141 -3.4896,-8.5154 c -0.5641,-1.4656 -0.3352,-1.3032 -1.3073,-2.5045 z" />
            <path
               inkscape:connector-curvature="0"
               id="path5881"
               style="fill:#44433e;fill-rule:evenodd;stroke-width:0.97581822"
               d="m 387.7842,269.655 1.2006,0.0782 c 0.0711,-0.1098 0.2065,-0.3869 0.2422,-0.3087 0.0581,0.1271 1.0395,-0.3742 0.5206,-3.9076 l -2.4234,-0.1137 -0.5955,3.2151 z" />
            <path
               inkscape:connector-curvature="0"
               id="path5883"
               style="fill:#44433e;fill-rule:evenodd;stroke-width:0.97581822"
               d="m 378.7592,274.9386 c 1.2938,0.5716 0.3177,0.1318 1.4219,0.3616 0.7744,0.1613 0.2692,-0.2674 1.168,0.4993 l 2.5375,-0.9641 0.0443,-0.3667 c -1.4199,-3.0172 -1.4231,-1.6304 -2.4445,-1.6787 -0.2151,-0.0101 -1.2058,-1.0466 -2.7272,2.1486 z" />
            <path
               inkscape:connector-curvature="0"
               id="path5885"
               style="fill:#44433e;fill-rule:evenodd;stroke-width:0.97581822"
               d="m 356.8073,252.4906 c 1.4979,-0.6468 0.6968,0.1943 1.7229,-1.4268 -1.2065,-0.3567 -0.9397,-0.5717 -1.607,-2.106 l -2.1339,-5.2319 c -0.2671,-0.681 -0.3008,-0.8881 -0.6543,-1.4958 -0.4224,-0.7256 -0.4442,-0.5864 -0.8047,-0.9961 z" />
            <path
               inkscape:connector-curvature="0"
               id="path5887"
               style="fill:#44433e;fill-rule:evenodd;stroke-width:0.97581822"
               d="m 443.0747,247.6509 1.6381,-0.0261 c -0.6823,-2.1281 -3.6001,-9.2214 -4.5603,-10.4389 z" />
            <path
               inkscape:connector-curvature="0"
               id="path5889"
               style="fill:#44433e;fill-rule:evenodd;stroke-width:0.97581822"
               d="m 452.8851,280.7297 c 0.5009,0.543 0.2807,0.9348 1.0854,0.2817 0.5077,0.3086 1.014,0.3245 1.539,0.1045 l 0.6799,-0.5316 c 0.4349,1.0695 0.255,0.4511 0.2295,1.437 l 2.0036,-3.4666 c -1.5522,-0.6075 1.3801,-0.0436 -0.7796,0.048 -0.0254,10e-4 -0.1586,-0.006 -0.1847,-0.005 l -2.4371,0.3042 c -1.3695,0.2114 -1.1348,0.5436 -2.136,1.8277 z" />
            <path
               inkscape:connector-curvature="0"
               id="path5891"
               style="fill:#44433e;fill-rule:evenodd;stroke-width:0.97581822"
               d="m 389.1748,265.2105 c -0.7395,-1.8932 -0.0759,-0.973 -1.7316,-2.1833 -0.3856,2.8222 -0.7074,1.6928 1.7316,2.1833 z" />
            <path
               inkscape:connector-curvature="0"
               id="path5893"
               style="fill:#44433e;fill-rule:evenodd;stroke-width:0.97581822"
               d="m 441.2501,279.793 c 0.4016,-0.5393 1.8689,1.6066 0.2738,-0.9045 l -0.2738,-0.2744 c -0.328,0.4926 -1.236,0.3305 0,1.1789 z" />
            <path
               inkscape:connector-curvature="0"
               id="path5895"
               style="fill:#44433e;fill-rule:evenodd;stroke-width:0.97581822"
               d="m 436.7114,258.2388 c -0.4477,-1.6606 0.3406,-0.6886 -1.183,-1.2164 0.4689,1.6195 -0.5549,0.7131 1.183,1.2164 z" />
            <path
               inkscape:connector-curvature="0"
               id="path5897"
               style="fill:#44433e;fill-rule:evenodd;stroke-width:0.97581822"
               d="m 447.5258,274.6771 c 0.5377,-0.7152 0.9439,0.2216 0,-1.1407 -0.205,0.2232 -1.6115,0.0285 0,1.1407 z" />
            <path
               inkscape:connector-curvature="0"
               id="path5899"
               style="fill:#44433e;fill-rule:evenodd;stroke-width:0.97581822"
               d="m 443.865,259.9203 c 0.7661,-1.0887 1.0042,1.768 0.3636,-0.6272 l -0.3636,-0.5501 c -0.3312,0.4671 -1.6131,0.394 0,1.1773 z" />
            <path
               inkscape:connector-curvature="0"
               id="path5901"
               style="fill:#44433e;fill-rule:evenodd;stroke-width:0.97581822"
               d="m 432.9961,277.9155 c 2.0012,-0.2629 0.4708,0.5129 1.2069,-1.1536 -1.5785,0.6771 -0.4483,0.1237 -1.2069,1.1536 z" />
            <path
               inkscape:connector-curvature="0"
               id="path5903"
               style="fill:#44433e;fill-rule:evenodd;stroke-width:0.97581822"
               d="m 447.5473,265.7737 c 0.0695,0.2833 -0.3386,1.6793 1.3115,0.008 z" />
            <path
               inkscape:connector-curvature="0"
               id="path5905"
               style="fill:#44433e;fill-rule:evenodd;stroke-width:0.97581822"
               d="m 428.6298,270.7102 c 0.5832,0.3852 0.5687,0.4643 1.239,0 -0.257,-0.191 -0.327,-0.4603 -0.9318,-0.2639 -0.0543,0.0176 -0.1923,0.1931 -0.3072,0.2639 z" />
          </g>
          <g
             id="Layer1005"
             style="stroke-width:0.97581822">
            <path
               inkscape:connector-curvature="0"
               id="path5908"
               style="fill:#c2c2b5;fill-rule:evenodd;stroke-width:0.97581822"
               d="m 427.1518,213.1343 c -2.27,1.2214 -3.6948,0.4434 -6.2023,0.0472 -0.4666,-11.5877 -0.8479,-10.0061 0.1926,-20.8891 0.589,-6.1594 0.6062,-6.315 6.0103,-7.0582 l 12.5081,-1.7846 2.1231,0.4525 c 0.1151,-0.1546 0.3477,0.1336 0.5098,0.2237 0.11,1.863 0.3183,2.2256 -0.3338,3.4304 -1.5554,8.0686 -0.0894,16.9392 -1.2919,24.0581 -2.3305,1.0743 -10.2554,1.5298 -13.5159,1.52 z m -1.5933,-44.9279 c -2.0786,1.46 -4.1643,8.4305 -4.9066,11.0313 l -2.4524,12.1109 c -0.5399,1.551 -0.2025,0.9519 -0.9454,1.7277 -0.4474,12.0103 -0.8184,20.628 0.9466,32.6358 0.5264,3.5809 5.0197,24.3122 9.3459,26.424 -1.0229,-4.8662 -4.2219,-10.2493 -4.5807,-15.4354 0.9135,1.2681 5.2229,11.5943 6.1341,13.8412 0.7888,-0.1756 0.5371,0.4778 0.6476,-0.4273 -0.3072,-0.2049 -0.1289,0.1979 -0.6818,-0.92 l -2.7382,-7.754 c -1.3705,-3.9916 -1.4347,-3.3703 0.2769,-5.7665 0.5739,2.9567 0.7589,3.8807 2.331,5.9638 l -3.6644,-19.975 c 0.5067,4.874 4.17,15.3438 6.142,20.3653 1.0153,2.5857 2.6639,3.9694 2.1419,6.5958 l 0.8992,-0.0635 c -0.8,-3.8049 -4.2246,-8.634 -2.6175,-12.3638 0.8773,2.4274 4.139,11.178 5.4688,11.7981 l -3.5523,-12.5496 c 1.2011,1.0945 2.0389,2.5345 1.9762,4.2931 l 1.577,1.4411 -3.649,-20.0087 c 0.2584,4.1887 3.6437,13.7424 5.2616,18.2188 0.1577,1.6477 0.7466,2.5846 1.4655,4.0356 0.8088,1.6319 1.3057,2.8012 1.8274,4.2913 l 0.8628,-0.0655 -2.9222,-10.465 c 0.9602,1.2175 3.878,8.3108 4.5603,10.4389 l 1.1193,0.1484 -3.0423,-11.134 c 0.9721,1.2013 0.7432,1.0389 1.3073,2.5045 l 3.4896,8.5154 0.7512,-0.4823 -3.1508,-11.335 c 0.1415,0.1187 0.3589,0.0885 0.4264,0.3538 l 1.4289,2.5953 c 1.1093,3.1883 3.5415,7.5039 4.1414,9.7787 l 1.0339,0.5498 c -1.1984,-3.0148 -3.5971,-9.116 -3.4573,-12.5174 l 2.6326,6.8251 c 1.236,-0.6 0.854,-0.1304 0.3859,-1.9958 -0.368,-1.4663 -0.5771,-1.6148 -0.8037,-3.3183 0.1025,-1.7648 -2.7055,-12.3324 -3.2328,-15.7949 -1.7333,-11.3812 -1.9716,-25.0018 -0.2394,-36.3418 0.9509,-6.226 2.517,-10.1246 3.8728,-15.7128 -1.8794,-1.7127 1.8315,-8.4263 2.6082,-10.0913 -4.113,7.6396 -3.0144,6.1478 -5.6979,11.9153 -0.5946,1.2779 -0.1411,0.5352 -0.8283,1.4051 l 3.0472,-11.4211 c -4.4916,8.52 -2.7681,5.6721 -5.9854,13.3667 l 2.9125,-12.2596 -5.6517,11.9847 3.4392,-12.5279 -6.3077,14.7255 2.8439,-12.74 c -2.0888,3.8458 -2.3408,3.9921 -3.8961,7.9828 -0.2581,0.6622 -0.3577,0.9508 -0.6665,1.5312 -0.3736,0.7024 -0.4317,0.7381 -0.7374,1.1171 l 2.6254,-10.2899 -5.5174,12.5077 2.5047,-11.3962 -5.2342,11.1551 2.5244,-10.7782 -5.2092,10.7924 3.0459,-11.5655 -5.9214,13.8311 2.8445,-12.7098 -5.5202,12.746 z" />
            <path
               inkscape:connector-curvature="0"
               id="path5910"
               style="fill:#c2c2b5;fill-rule:evenodd;stroke-width:0.97581822"
               d="m 465.9652,160.0599 c -2.3791,2.7064 -5.0085,12.6959 -5.8588,16.8531 -3.2627,15.9517 -2.9704,40.5046 1.3617,56.1151 0.4164,1.5007 0.3542,3.9436 0.3325,3.8305 -0.0135,-0.0703 -0.0816,0.2673 -0.1547,0.3845 0.7885,0.8767 0.8439,0.7937 1.4412,2.4583 0.2879,0.8028 0.4976,1.8313 0.8085,2.8263 1.7021,5.4494 3.4915,8.6114 5.9469,13.7712 l -5.0096,-15.3951 1.0337,0.5203 -4.1395,-20.0121 4.2515,14.1763 c 0.7609,2.2893 0.7954,2.596 2.1641,4.4314 l -3.592,-19.5776 c 0.9314,7.2218 4.5452,14.0907 6.1728,20.5985 0.5534,3.8997 5.8074,11.5893 7.4864,14.8292 -2.0382,-4.8719 -6.4229,-12.2073 -6.7956,-18.273 0.8051,0.8087 0.4191,-0.5508 0.8041,1.2267 l 1.6314,1.2875 -3.7513,-19.2106 c 1.0627,2.731 2.4654,9.3727 4.1711,14.157 0.8728,2.4486 0.7559,2.5559 2.2558,4.5075 l -3.8636,-19.5514 4.7482,16.4356 c 0.6155,4.8462 7.089,15.1932 9.1603,18.9453 -2.4869,-5.7127 -7.2394,-14.4267 -7.4464,-21.3787 l 2.0846,5.7493 1.4177,1.2132 -1.6159,-11.5443 c 0.6059,1.9606 0.1508,3.194 0.8629,1.8938 0.2236,-2.1774 -2.3412,-13.9831 -2.8023,-17.6913 -1.593,-12.8102 -1.8047,-26.9755 0.3276,-39.6687 1.1096,-6.6056 3.4657,-11.6599 4.7015,-17.2614 l -6.7021,12.6131 2.9765,-11.919 -5.6525,11.9793 3.0129,-11.6382 c -3.6707,6.8321 -2.6013,5.4249 -4.836,10.2098 -0.0799,0.1709 -0.3671,0.6976 -0.3902,0.741 -0.045,0.0853 -0.1882,0.44 -0.2222,0.36 -0.0342,-0.081 -0.1445,0.2466 -0.2298,0.3612 l 2.2195,-9.6253 -5.1046,11.8669 2.846,-12.4713 -5.5763,12.2073 2.9606,-12.0195 -3.035,5.6752 c -0.8583,1.9744 -1.5828,4.7216 -2.6058,6.3732 l 2.8753,-11.0555 -0.4954,-0.2762 c -0.009,-0.0634 -0.1173,-0.0179 -0.1757,-0.0284 z" />
            <path
               inkscape:connector-curvature="0"
               id="path5912"
               style="fill:#c2c2b5;fill-rule:evenodd;stroke-width:0.97581822"
               d="m 389.8962,215.6662 -5.6076,-0.5653 1.1674,-22.2025 c 3.248,-0.9516 7.3091,-1.1455 10.4891,-1.6612 1.0436,-0.1693 4.1728,-0.7952 5.042,-0.6311 2.2666,0.4278 2.316,2.5686 1.0092,4.3073 l -1.0839,19.1273 c -0.7205,1.8345 -9.4118,1.6877 -11.0162,1.6255 z m -4.7899,-35.1923 c -4.0832,5.3561 -5.3529,22.8705 -5.1947,30.6182 0.1128,5.5289 0.2851,11.2322 1.1766,16.1353 0.967,5.3176 3.1687,9.6039 4.2193,14.7171 l 0.7434,1.994 1.4183,1.2348 -4.0964,-20.9869 c 1.4695,6.4032 3.5255,11.8282 5.3767,18.1775 l -0.055,1.0196 1.8024,2.3963 -4.4144,-22.6013 c 0.3005,5.495 4.2357,14.2109 5.7598,19.861 0.2112,4.245 6.8011,13.5697 8.4052,17.007 -2.5716,-5.3874 -7.6758,-15.5985 -7.9289,-22.3447 l 2.0444,5.7671 1.4814,1.2461 -4.0893,-21.0365 c 1.3966,6.9082 4.3383,14.306 5.0803,18.0356 l 0.1712,1.196 1.502,1.2592 -4.0586,-21.4984 c 0.2934,6.1521 4.6319,14.1635 5.5602,19.785 l 1.5335,2.32 -4.1078,-20.5974 c 1.0219,3.0921 1.6876,6.8642 2.7547,10.1413 1.0903,3.348 2.8167,7.1884 3.6918,10.2797 l 7.8396,15.4037 -7.7185,-20.2724 c 1.4224,1.5149 2.9727,6.5911 4.4596,9.4402 l 4.9495,8.8593 -5.3667,-16.1619 1.8691,2.4451 c -0.7644,-3.8578 -2.0043,-7.5843 -2.7971,-11.5682 l -1.8942,-11.8661 3.48,10.3558 c 0.4406,-5.605 -6.0784,-25.6338 1.5067,-50.1188 1.867,-6.0265 3.9524,-8.4757 6.0332,-13.2944 -1.0358,-0.3004 -1.0865,0.3865 -0.8566,-0.449 -4.1831,7.7945 -4.227,9.3795 -6.4894,13.8888 l 2.9638,-11.9742 c -3.7436,6.9844 -2.582,5.4458 -4.8112,10.2183 l 2.1655,-10.0213 -5.9319,13.7211 3.7186,-14.2388 c -4.3858,8.3148 -3.1461,5.7238 -6.3855,14.2858 l 2.9116,-12.3153 -5.6507,12.0688 2.5697,-10.7987 -5.2297,10.8494 2.5988,-10.6721 c -2.1566,3.9766 -2.3123,3.9367 -3.9065,8.0484 -0.2561,0.6604 -0.3552,0.9465 -0.6593,1.5349 -0.3512,0.6791 -0.4418,0.7705 -0.7091,1.1198 l 2.5947,-10.3369 -5.4798,12.5776 3.3017,-13.3151 -3.3138,6.262 c -0.9854,2.217 -1.7027,4.9139 -2.7197,6.7729 l 2.972,-11.9439 -5.6472,11.9688 z" />
            <path
               inkscape:connector-curvature="0"
               id="path5914"
               style="fill:#c2c2b5;fill-rule:evenodd;stroke-width:0.97581822"
               d="m 359.3225,216.9828 c -1.754,0.7549 -3.4878,1.0051 -5.7712,0.1092 -2.1656,-2.6794 -0.9573,-14.7521 0.4067,-17.9685 l 12.4756,-1.797 0.3731,1.647 -0.9548,17.2446 z m 9.5073,-41.8265 c -0.4419,0.0953 -0.9002,0.1398 -1.3164,0.3316 -1.6393,0.7554 -0.4296,0.1592 -1.1581,0.732 2.2428,-0.1865 0.6109,-0.5623 1.8985,0.6914 -2.2383,3.8543 -3.0563,4.7847 -4.5575,8.8734 l -1.1969,2.6916 c -0.0349,-0.0808 -0.1457,0.2529 -0.2285,0.3728 l 2.629,-10.6915 -5.4994,12.8616 2.8197,-12.5052 -5.4999,12.5918 2.8845,-12.4101 -5.5656,12.4712 3.2676,-11.9783 c -1.757,0.5777 -3.5143,3.6818 -4.2909,5.2265 -2.7498,5.4689 -5.1311,13.6301 -5.3742,19.8732 -0.0611,1.5687 0.1094,2.1105 -0.4405,3.6999 -0.34,0.9832 -0.4623,1.0907 -0.7505,1.5324 0.9914,21.1074 1.9486,27.3009 9.699,43.9797 l 0.6576,-1.0097 -3.477,-11.2566 c 0.3605,0.4097 0.3823,0.2705 0.8047,0.9961 0.3535,0.6077 0.3872,0.8148 0.6543,1.4958 l 2.1339,5.2319 c 0.6673,1.5343 0.4005,1.7493 1.607,2.106 l 0.094,-0.3699 -2.8746,-10.6483 c 1.8093,1.5687 1.4704,2.0293 2.6685,4.9086 0.3266,0.7851 1.5139,3.9956 2.0483,4.4967 l 0.2496,0.0937 -2.2822,-10.3877 c 0.5556,0.5665 0.3898,0.1612 0.9073,1.0591 0.4933,0.8556 2.0683,5.805 3.446,8.3033 l 0.0208,0.2007 c 0.0806,-2.2903 -2.3643,-9.4322 -3.0016,-12.6335 l -2.1301,-13.1917 c 0.5055,5.3221 3.3233,12.42 4.8567,17.2817 0.5937,1.8827 0.8402,3.3305 1.9345,5.0007 l 0.5451,0.7205 -4.0814,-21.1805 c 0.8066,5.8608 3.3376,10.8985 4.7857,16.4954 l 2.2413,6.1958 1.0799,0.2345 c -1.1147,-2.4358 -2.9123,-6.3153 -1.5405,-8.9764 0.6904,3.0589 2.5627,6.0523 3.1497,8.9644 l 1.0511,-0.0763 -1.8775,-7.6231 c 1.7753,1.4866 2.8092,4.6593 3.897,7.6738 l 0.5831,-0.1246 -1.7898,-8.4218 c 0.1313,0.1222 0.3328,0.1084 0.3943,0.3662 l 1.1883,1.8699 2.6823,6.9152 0.4984,0.0125 c -4.0037,-10.2037 -5.961,-17.1417 -6.9558,-29.6839 -1.0576,-13.3341 0.6579,-20.6164 3.6519,-32.6812 -1.5247,-1.762 2.1077,-9.7217 2.7412,-11.2898 -4.1443,7.6384 -2.6843,5.437 -5.2941,11.133 l 2.2265,-10.0872 -5.9128,13.8072 2.8556,-12.7009 -5.5859,12.3712 z" />
            <path
               inkscape:connector-curvature="0"
               id="path5916"
               style="fill:#c2c2b5;fill-rule:evenodd;stroke-width:0.97581822"
               d="m 407.9745,215.4477 c 2.0559,1.1946 5.6215,8.2606 7.4121,10.7201 -1.2976,-7.1085 -2.3304,-29.29 -0.2646,-35.5994 -2.2613,-0.3354 -3.5977,-2.3607 -4.5828,-4.7413 -3.1272,4.4606 -2.6743,25.2006 -2.5647,29.6206 z" />
            <path
               inkscape:connector-curvature="0"
               id="path5918"
               style="fill:#c2c2b5;fill-rule:evenodd;stroke-width:0.97581822"
               d="m 441.2501,279.793 c -1.236,-0.8484 -0.328,-0.6863 0,-1.1789 l 0.2738,0.2744 c 1.5951,2.5111 0.1278,0.3652 -0.2738,0.9045 z m -8.254,-1.8775 c 0.7586,-1.0299 -0.3716,-0.4765 1.2069,-1.1536 -0.7361,1.6665 0.7943,0.8907 -1.2069,1.1536 z m 14.5297,-4.3791 c 0.9439,1.3623 0.5377,0.4255 0,1.1407 -1.6115,-1.1122 -0.205,-0.9175 0,-1.1407 z m -18.896,-2.8262 c 0.1149,-0.0708 0.2529,-0.2463 0.3072,-0.2639 0.6048,-0.1964 0.6748,0.0729 0.9318,0.2639 -0.6703,0.4643 -0.6558,0.3852 -1.239,0 z m 18.9175,-4.9365 1.3115,0.008 c -1.6501,1.6713 -1.242,0.2753 -1.3115,-0.008 z m -16.2588,-2.6255 c 0.47,-1.9306 0.1081,-0.8895 0.9847,-1.9376 3.0744,-3.6762 8.7113,-3.9548 12.9729,0.817 1.1368,1.273 1.8618,2.8034 2.1921,4.6981 0.4594,2.6347 -0.0787,5.8038 -1.3146,7.7329 -2.765,4.3155 -8.9205,5.3393 -13.106,1.3546 -4.3745,-4.1645 -2.82,-9.0876 -2.6368,-11.1857 0.289,-3.3101 0.4609,0.186 -1.0523,-2.3181 z m 12.5765,-3.2279 c -1.6131,-0.7833 -0.3312,-0.7102 0,-1.1773 l 0.3636,0.5501 c 0.6406,2.3952 0.4025,-0.4615 -0.3636,0.6272 z m -7.1536,-1.6815 c -1.7379,-0.5033 -0.7141,0.4031 -1.183,-1.2164 1.5236,0.5278 0.7353,-0.4442 1.183,1.2164 z m -1.6425,-2.3051 c -14.4675,4.617 -7.004,29.5691 7.4998,25.0013 14.0177,-4.4146 7.1858,-29.6879 -7.4998,-25.0013 z" />
            <path
               inkscape:connector-curvature="0"
               id="path5920"
               style="fill:#c2c2b5;fill-rule:evenodd;stroke-width:0.97581822"
               d="m 448.2654,193.5342 c 1.0328,3.9309 -2.5213,8.6852 0.713,14.039 0.9589,1.5872 1.9573,2.9097 3.0664,4.7424 1.2808,2.1166 1.8898,3.7324 3.5604,4.5154 -0.4123,-4.3429 -0.7144,-8.7359 -0.8397,-13.0597 -0.1395,-4.8189 0.5768,-9.4646 0.5169,-13.7226 l -1.2176,1.4047 -4.3078,-8.7723 -0.4161,0.8371 c -0.6478,1.7681 -0.5482,2.0766 -0.799,4.035 -0.2876,2.2466 -0.604,3.6682 -0.2765,5.981 z" />
            <path
               inkscape:connector-curvature="0"
               id="path5922"
               style="fill:#c2c2b5;fill-rule:evenodd;stroke-width:0.97581822"
               d="m 371.2858,217.3704 0.5146,0.8322 c 0.0547,0.0972 0.1642,0.2802 0.2287,0.3973 l 6.5018,9.937 c -1.2257,-8.5097 -2.4149,-23.2398 -0.53,-31.8744 -2.5945,-1.3777 -3.9715,-2.6314 -4.005,-5.8434 -2.9378,3.3497 -3.1563,21.1511 -2.7101,26.5513 z" />
            <path
               inkscape:connector-curvature="0"
               id="path5924"
               style="fill:#c2c2b5;fill-rule:evenodd;stroke-width:0.97581822"
               d="m 339.1899,220.1165 c 1.2396,1.2038 4.943,7.0546 6.1648,8.8295 -0.8064,-4.7046 -0.7797,-8.9799 -1.2013,-13.6636 -0.4175,-4.6384 0.7634,-10.2362 0.8737,-14.4483 -1.786,-6e-4 -3.027,-2.1773 -3.4334,-4.1993 -2.8925,3.1727 -2.4546,18.2584 -2.4038,23.4817 z" />
            <path
               inkscape:connector-curvature="0"
               id="path5926"
               style="fill:#c2c2b5;fill-rule:evenodd;stroke-width:0.97581822"
               d="m 369.6039,272.4643 c 0.4136,0.7308 1.5159,-1.0822 0,1.2344 -0.4003,-0.5212 -1.7762,-0.6635 0,-1.2344 z m -5.7073,-1.3591 c -0.5439,1.6857 0.8023,0.732 -1.1442,1.2206 0.5033,-1.8042 -0.5686,-0.6285 1.1442,-1.2206 z m 7.305,-13.3809 c 3.8297,2.1075 3.5333,6.2769 3.1481,9.2722 -0.142,1.1049 -0.2502,0.5745 0.0119,1.4309 0.0185,0.0608 0.1337,0.2133 0.154,0.2592 0.0208,0.0475 0.1862,0.3068 0.2043,0.2353 0.0187,-0.0738 0.155,0.1478 0.2346,0.2194 -3.5834,1.9448 -6.1877,5.3656 -11.0579,1.9639 -5.945,-3.6107 -1.7434,-9.536 -3.79,-11.3773 l 1.5195,-0.6256 c 0.0679,-0.0566 0.1755,-0.1795 0.2444,-0.2429 0.0734,-0.0675 0.1739,-0.1962 0.2495,-0.2679 0.9738,-0.9252 0.9089,-1.1389 2.6135,-1.7488 3.0002,-1.0731 4.1139,-0.2583 6.4681,0.8816 z m 0,0 c 0.4848,-1.7104 -0.8188,-0.6776 1.1372,-1.2481 -0.5694,1.7877 0.524,0.6959 -1.1372,1.2481 z m -5.7816,-1.3705 c -1.6681,-0.9334 -0.308,-0.8357 0,-1.2496 0.5972,0.6919 0.2448,0.9276 0.246,0.9117 0.007,-0.0937 -0.1729,0.2193 -0.246,0.3379 z m -0.8572,-1.9386 c -12.1535,4.357 -5.1268,23.9502 6.1837,20.0522 11.3459,-3.9102 5.2051,-24.1352 -6.1837,-20.0522 z" />
            <path
               inkscape:connector-curvature="0"
               id="path5928"
               style="fill:#c2c2b5;fill-rule:evenodd;stroke-width:0.97581822"
               d="m 496.2922,208.4748 0.9127,1.0458 h 1.046 l 0.5228,-2.0918 c 2.0618,1.7291 -1.1282,0.3562 1.7665,0.6484 l 0.3933,-0.1718 c 0.0155,-0.003 0.114,-0.0786 0.1297,-0.0789 l 0.2582,0.1109 c 0.0203,0.007 0.1163,0.1336 0.1367,0.1395 0.791,0.2286 -0.516,2.2027 0.5433,-0.2571 0.581,-1.3491 0.3153,-1.343 0.4692,-3.0059 l 0.9265,-5.2316 -5.4603,0.6871 c -1.7915,2.7907 -1.8245,4.617 -1.6446,8.2054 z" />
            <path
               inkscape:connector-curvature="0"
               id="path5930"
               style="fill:#c2c2b5;fill-rule:evenodd;stroke-width:0.97581822"
               d="m 508.4009,263.0981 2.4063,-0.4086 c 3.5963,-5.6538 7.7102,-20.1789 7.096,-27.9057 l -3.7498,14.728 c -1.8214,6.2904 -4.5363,10.1598 -5.7525,13.5863 z" />
            <path
               inkscape:connector-curvature="0"
               id="path5932"
               style="fill:#c2c2b5;fill-rule:evenodd;stroke-width:0.97581822"
               d="m 493.2437,201.8294 c -0.5307,3.4954 -0.1101,6.536 2.4872,8.7236 -0.2936,-2.8698 -0.558,-5.812 0.3933,-8.411 1.4031,-3.834 2.749,-1.8203 5.1408,-3.59 -3.148,-4.7846 -8.1522,-2.5546 -8.0213,3.2774 z" />
            <path
               inkscape:connector-curvature="0"
               id="path5934"
               style="fill:#c2c2b5;fill-rule:evenodd;stroke-width:0.97581822"
               d="m 503.1501,259.3222 c -0.1071,1.9563 -0.2896,1.542 1.3188,1.954 1.5211,-0.6258 1.3686,-0.9501 2.1526,-2.6253 2.9235,-6.2453 5.847,-17.5459 5.7305,-24.1101 -1.0376,3.6973 -6.0957,24.3393 -9.2019,24.7814 z" />
            <path
               inkscape:connector-curvature="0"
               id="path5936"
               style="fill:#c2c2b5;fill-rule:evenodd;stroke-width:0.97581822"
               d="m 450.6552,254.2604 4.3568,0.357 1.5569,-0.9563 c -2.9618,-3.1624 -8.2404,-5.4864 -14.643,-4.673 1.4675,0.6464 3.2214,1.3902 4.6574,2.2697 1.7059,1.0448 2.8424,2.1516 4.0719,3.0026 z" />
            <path
               inkscape:connector-curvature="0"
               id="path5938"
               style="fill:#c2c2b5;fill-rule:evenodd;stroke-width:0.97581822"
               d="m 512.7602,261.512 c 1.4126,-0.4296 0.8508,-0.0723 2.0486,-1.4379 0.4751,-0.5416 0.9289,-1.2027 1.3062,-1.8391 0.9263,-1.5625 1.5743,-2.7725 1.7102,-4.4237 0.5348,-5.4774 3.0156,-10.4092 2.8414,-17.156 -1.8157,6.7468 -3.2776,13.3525 -5.9242,19.7096 -0.4462,1.0716 -0.8112,1.9691 -1.2896,2.9626 -1.223,2.5399 -0.995,1.6083 -0.6926,2.1845 z" />
            <path
               inkscape:connector-curvature="0"
               id="path5940"
               style="fill:#c2c2b5;fill-rule:evenodd;stroke-width:0.97581822"
               d="m 365.0892,267.3027 -0.8865,-3.3911 1.3032,-0.1933 c 2.0376,-0.4084 1.1818,-0.0728 3.885,-2.1425 l 0.3977,6.0791 c -0.8207,0.1934 -1.3059,0.2873 -2.2779,0.2889 l -2.3785,0.3226 c 12.0805,3.261 4.2556,-13.9172 -0.7332,-6.8976 -1.1489,1.6166 -1.317,4.1812 0.6902,5.9339 z" />
            <path
               inkscape:connector-curvature="0"
               id="path5942"
               style="fill:#c2c2b5;fill-rule:evenodd;stroke-width:0.97581822"
               d="m 376.8941,252.8658 c 1.2942,0.528 1.478,0.4621 2.542,0.4658 2.7061,0.009 1.5618,-0.2028 1.4355,-1.3661 -1.8059,-2.6802 -6.3974,-3.54 -10.3845,-3.2306 1.119,0.7932 2.1485,1.0458 3.4681,1.9357 1.2662,0.8539 1.9757,1.4497 2.9389,2.1952 z" />
            <path
               inkscape:connector-curvature="0"
               id="path5944"
               style="fill:#c2c2b5;fill-rule:evenodd;stroke-width:0.97581822"
               d="m 505.7895,202.8958 0.8306,3.2738 c -0.0125,-2.2063 -0.2389,-2.9344 1.0467,-4.4575 1.533,0.3841 1.6606,0.5171 2.3178,2.354 0.5437,1.52 0.5685,2.5137 0.5914,4.0907 h 1.0582 c -0.2313,-2.2961 -0.4425,-4.086 -1.1655,-6.1374 -0.8335,-2.365 -0.9806,-3.1503 -3.4254,-3.4199 -1.1046,1.4136 -1.4572,1.9414 -1.2538,4.2963 z" />
            <path
               inkscape:connector-curvature="0"
               id="path5946"
               style="fill:#c2c2b5;fill-rule:evenodd;stroke-width:0.97581822"
               d="m 506.0329,262.4273 0.5038,-0.1401 1.5373,0.0769 3.44,-13.9368 c -1.0862,3.2654 -5.4341,12.0942 -5.4811,14 z" />
            <path
               inkscape:connector-curvature="0"
               id="path5948"
               style="fill:#c2c2b5;fill-rule:evenodd;stroke-width:0.97581822"
               d="m 496.2922,208.4748 0.5135,2.097 c 2.8262,0.3499 -2.7124,0.538 0.9647,-0.3725 l 2.5207,-0.006 c 0.0175,0.004 0.1164,0.1008 0.1335,0.104 l 0.3589,-0.0277 c 0.8795,-0.3206 -0.7708,-0.1903 0.2708,-0.2391 0.016,-8e-4 0.1294,-0.0303 0.1457,-0.0242 l 0.5338,0.9101 0.4958,-1.8966 0.241,-4.2057 c -0.1539,1.6629 0.1118,1.6568 -0.4692,3.0059 -1.0593,2.4598 0.2477,0.4857 -0.5433,0.2571 -0.0204,-0.006 -0.1164,-0.1322 -0.1367,-0.1395 l -0.2582,-0.1109 c -0.0157,3e-4 -0.1142,0.0759 -0.1297,0.0789 l -0.3933,0.1718 c -2.8947,-0.2922 0.2953,1.0807 -1.7665,-0.6484 l -0.5228,2.0918 h -1.046 z" />
          </g>
          <path
             inkscape:connector-curvature="0"
             id="path5951"
             style="fill:#000000;fill-rule:evenodd;stroke-width:0.97581822"
             d="m 456.4189,282.0213 c 0.2102,1.1667 0.0948,0.4231 -0.4993,0.94 -1.5004,2.2324 -5.6733,3.4821 -9.3709,3.7512 1.8127,-0.8948 3.9414,-2.7745 5.1162,-3.8463 0.6843,-1.7644 0.4165,-0.8151 1.2202,-2.1365 1.0012,-1.2841 0.7665,-1.6163 2.136,-1.8277 l 2.4371,-0.3042 c 0.0261,-0.001 0.1593,0.006 0.1847,0.005 2.1597,-0.0916 -0.7726,-0.6555 0.7796,-0.048 z m 6.9158,-14.5369 c 2.1358,0.06 3.5951,-0.1558 3.6504,2.1922 0.0602,2.5514 -1.816,2.3004 -4.0488,2.4488 z m -28.2658,-11.5507 c 14.6856,-4.6866 21.5175,20.5867 7.4998,25.0013 -14.5038,4.5678 -21.9673,-20.3843 -7.4998,-25.0013 z m -70.5061,-1.5185 c 11.3888,-4.083 17.5296,16.142 6.1837,20.0522 -11.3105,3.898 -18.3372,-15.6952 -6.1837,-20.0522 z m 22.8804,8.612 c 1.6557,1.2103 0.9921,0.2901 1.7316,2.1833 -2.439,-0.4905 -2.1172,0.6389 -1.7316,-2.1833 z m 75.9577,4.0387 -1.6132,-7.5331 5.9194,7.0358 z m -6.832,-13.4048 c 1.6959,1.1126 1.2606,1.4605 2.3693,2.9291 l -0.8782,0.6226 c -0.0327,0.0165 -0.1633,0.0645 -0.1977,0.0808 -2.54,1.2069 1.0661,-0.7409 -0.656,0.283 -0.3586,0.2132 -0.4741,0.5451 -0.5259,0.4075 -0.0393,-0.1037 -0.1926,0.179 -0.286,0.2715 l -0.8566,-1.5472 -1.44,0.8211 c -0.5838,0.0987 -2.6792,-1.4955 -3.4426,-3.2691 -1.2295,-0.851 -2.366,-1.9578 -4.0719,-3.0026 -1.436,-0.8795 -3.1899,-1.6233 -4.6574,-2.2697 6.4026,-0.8134 11.6812,1.5106 14.643,4.673 z m 39.9772,-107.6924 c 10.0734,-2.0259 18.1426,13.332 21.5429,21.2338 4.3761,10.1693 7.3019,22.6551 8.7732,34.5737 7.2285,58.5514 -17.9677,93.0232 -37.9202,46.3421 -8.9801,-21.0098 -12.2817,-52.2192 -8.2083,-75.0011 1.9423,-10.8629 6.3545,-25.2464 15.8124,-27.1485 z m -122.5756,39.8889 c -2.994,12.0648 -4.7095,19.3471 -3.6519,32.6812 0.9948,12.5422 2.9521,19.4802 6.9558,29.6839 l -0.4984,-0.0125 c -1.0905,-0.1285 -2.4751,0.0836 -2.4751,-0.7295 l -0.5831,0.1246 -2.0195,-0.0507 -1.0511,0.0763 -1.6092,0.012 c -0.3451,0.3055 -0.0191,0.2412 -1.0486,0.4741 -0.125,0.0283 -1.6934,0.0769 -1.8338,0.0909 l -3.3477,0.5121 -0.0208,-0.2007 c -0.7317,0.5774 0.3792,-0.0676 -1.0921,0.7005 -0.1033,0.0539 -0.3931,0.3002 -0.4747,0.1712 -0.085,-0.1348 -0.3368,0.1005 -0.5043,0.1536 l -0.2496,-0.0937 c -0.7992,1.0362 0.0381,0.5129 -1.8422,1.243 l -0.094,0.3699 c -1.0261,1.6211 -0.225,0.78 -1.7229,1.4268 l -0.6576,1.0097 c -7.7504,-16.6788 -8.7076,-22.8723 -9.699,-43.9797 l 1.6959,23.6303 c 1.4464,10.2633 6.0944,16.6953 7.6411,21.4025 -0.5922,0.9673 -1.3044,2.3299 -1.72,3.6423 -2.9461,-1.5881 -6.6956,-7.8858 -8.572,-12.0063 -2.148,-4.7166 -4.2182,-10.3934 -4.9003,-15.9045 l -1.4055,-10.1684 c -0.0508,-5.2233 -0.4887,-20.309 2.4038,-23.4817 -0.0758,-3.7573 3.2886,-10.1641 5.0344,-12.7079 2.2618,-3.2954 4.9485,-6.2957 9.8537,-7.3349 l 1.3026,-0.302 c -0.5518,0.9577 -0.0485,-0.0634 -0.0931,1.4819 2.8714,-0.6014 5.9097,-1.8304 8.664,-1.552 0.7285,-0.5728 -0.4812,0.0234 1.1581,-0.732 0.4162,-0.1918 0.8745,-0.2363 1.3164,-0.3316 l 12.7844,-2.8122 c -1.0963,2.0858 -2.9521,3.8211 -4.5069,6.5157 -1.3476,2.3357 -2.124,4.5435 -3.1368,6.9978 z m 42.2731,-18.0358 c -2.0808,4.8187 -4.1662,7.2679 -6.0332,13.2944 -7.5851,24.485 -1.0661,44.5138 -1.5067,50.1188 0.8854,1.2819 1.089,2.5714 1.5162,4.1551 2.7093,10.044 4.9522,14.1104 9.9026,23.0366 0.8823,0.6155 2.1037,0.5146 1.5847,3.6583 -0.2892,1.7513 -0.6035,2.7459 -0.7316,4.4994 l -18.4275,-0.7487 -2.4904,-0.1269 -1.1189,1.7553 c -0.3888,0.074 -2.2516,-0.2614 -2.6781,-0.3672 -1.75,-0.4338 -3.1119,-1.1443 -4.3764,-1.928 -4.6844,-2.9032 -4.3266,-3.9163 -5.6469,-6.4895 l 0.1047,1.5687 -3.8432,-0.6794 c -0.0231,-0.002 -0.1478,-0.006 -0.17,-0.01 -0.023,-0.004 -0.1557,-0.008 -0.1765,-0.0134 -0.5391,-0.1365 1.1935,2.0674 -1.2648,-1.381 l -3.1003,-4.1586 -0.8932,-1.14 c -0.9632,-0.7455 -1.6727,-1.3413 -2.9389,-2.1952 -1.3196,-0.8899 -2.3491,-1.1425 -3.4681,-1.9357 3.9871,-0.3094 8.5786,0.5504 10.3845,3.2306 1.6454,0.9068 1.3464,0.6972 2.2787,2.5302 l 0.7852,-0.3541 c -1.7547,-3.3517 -2.6443,-2.5992 -4.6274,-4.6425 -1.1426,-1.1775 -2.131,-4.1722 -2.8406,-6.048 -1.8093,-4.7838 -2.5864,-8.9177 -3.9186,-13.8691 l -1.2631,-12.2116 c -0.4462,-5.4002 -0.2277,-23.2016 2.7101,-26.5513 -0.2015,-3.556 3.3517,-10.607 5.0639,-13.1511 2.7517,-4.0886 4.4477,-6.2059 9.3734,-8.5805 0.0203,-0.0124 1.1239,-1.4071 2.845,-0.7266 1.7607,0.696 -0.0935,-0.4783 0.6399,0.818 l 0.217,0.5646 27.563,-6.1267 c -0.5921,1.046 -2.5258,3.6515 -3.4545,4.205 z m 35.1322,2.4417 c -1.3558,5.5882 -2.9219,9.4868 -3.8728,15.7128 -1.7322,11.34 -1.4939,24.9606 0.2394,36.3418 0.5273,3.4625 3.3353,14.0301 3.2328,15.7949 1.5062,1.64 1.9342,4.4765 3.2522,7.5924 1.0166,2.4034 2.3178,4.9305 3.06,6.9926 l -2.8145,-2.2594 -2.2552,-1.3192 -1.0339,-0.5498 c -1.789,-0.2996 -2.337,-0.0587 -3.5971,-0.9105 l -1.7546,0.1141 -1.1193,-0.1484 -1.6381,0.0261 -0.8628,0.0655 c -1.7537,0.2314 -2.7887,0.5076 -4.9064,0.2784 -0.7606,0.8203 -1.0817,0.4498 -2.8513,0.5657 l -0.8992,0.0635 c -1.8431,1.1081 -2.0748,0.9468 -3.8074,1.4906 -0.1105,0.9051 0.1412,0.2517 -0.6476,0.4273 -1.0506,2.4457 -0.3421,0.9322 -1.5534,1.5942 -4.3262,-2.1118 -8.8195,-22.8431 -9.3459,-26.424 -1.765,-12.0078 -1.394,-20.6255 -0.9466,-32.6358 -0.1813,0.253 -0.1076,-0.1674 -0.3403,0.9364 -1.4223,6.7428 -0.4209,24.7857 0.8547,32.7954 0.8247,5.1778 1.8796,9.9592 3.3057,14.9248 1.3984,4.8689 4.7497,11.2196 3.9799,12.9813 l -2.5439,4.3374 c -2.5326,-1.7264 -6.6577,-10.32 -8.2114,-14.2096 -2.3461,-5.8735 -3.5457,-11.1426 -4.9692,-17.5735 l -1.3551,-11.8208 c -0.1096,-4.42 -0.5625,-25.16 2.5647,-29.6206 -0.4631,-3.9906 3.7246,-12.5 5.5987,-15.536 2.1517,-3.4856 6.5821,-9.2075 11.4465,-9.8655 1.3452,-1.0134 0.7006,-0.6905 2.6159,-0.9118 -1.1228,1.9608 -2.9917,3.4153 -3.3685,5.0731 3.6767,-4.6209 8.5712,-4.605 16.0278,-6.3049 5.081,-1.1585 13.2594,-3.5224 18.0525,-3.9591 -3.1047,3.0662 -7.6007,10.0999 -9.5363,15.9406 z M 484.1,156.7063 c -1.2358,5.6015 -3.5919,10.6558 -4.7015,17.2614 -2.1323,12.6932 -1.9206,26.8585 -0.3276,39.6687 0.4611,3.7082 3.0259,15.5139 2.8023,17.6913 0.3413,0.4281 0.3592,0.387 0.7187,1.1646 l 1.9974,7.662 1.3699,2.2662 c 0.295,0.826 0.3818,1.594 0.6012,2.4024 1.4425,5.3148 6.9337,15.6585 10.4583,19.2899 l 5.7511,5.2872 -22.8336,-0.4806 0.7984,0.1063 1.5638,1.758 c -10.6838,1.8804 -20.0229,-11.2992 -23.7036,-18.4611 -4.9682,-9.6667 -8.4654,-20.4834 -10.0559,-32.402 -0.0598,-5.1378 -2.791,-22.9567 -0.2735,-26.3864 -0.3275,-2.3128 -0.0111,-3.7344 0.2765,-5.981 0.2508,-1.9584 0.1512,-2.2669 0.799,-4.035 l 0.4161,-0.8371 c -0.6474,-4.5543 4.4061,-16.4821 6.4091,-19.9533 2.9239,-5.0672 7.6066,-11.0808 14.4358,-12.3475 l 1.6162,-0.5654 c -0.6655,1.4398 -0.338,1.1761 -1.8919,2.978 -0.9984,1.1576 -1.4334,1.632 -2.1049,2.9657 2.8713,-3.8601 3.7575,-4.1368 9.9482,-5.543 3.1466,-0.7147 9.7324,-2.5912 12.4588,-2.6331 -2.9643,1.7089 -4.3662,6.474 -6.5283,9.1238 z m -35.5642,-0.9339 -11.2535,2.4758 c -1.3124,0.7609 -4.9922,0.1235 -7.1339,0.1884 l -1.4468,0.2783 -2.3786,0.8745 -1.2596,0.3299 -0.5277,0.4532 -0.2085,0.1717 c -2.5262,1.6335 -24.1638,7.2717 -29.228,6.7701 -2.2456,-0.2225 -4.2403,0.0625 -6.2972,0.7435 -4.4665,1.4786 -0.4369,0.9927 -10.654,3.944 l -5.0274,1.0815 -0.7425,0.3331 -3.8473,0.6693 c -3.1423,1.4104 -7.0235,1.1681 -10.7678,1.4652 l -1.992,0.3109 -0.6953,0.2638 c -1.8413,0.5672 -2.8631,1.1783 -4.3306,2.0677 -1.338,1.6102 -2.4822,2.2189 -3.8439,3.9144 -1.2201,1.519 -2.0124,3.038 -2.9595,4.902 -3.1942,6.2865 -2.9487,8.9411 -3.9809,11.0849 l -0.5292,4.0169 c -2.1124,10.9228 -0.8719,17.7062 0.3451,28.2425 l 1.2498,5.7072 c 0.9037,1.808 1.8619,6.0963 2.9232,8.5278 1.2076,2.7663 2.5013,4.9913 3.6682,7.4665 2.1656,2.4736 3.3527,4.9806 5.7816,7.1494 0.0138,3.051 -0.4106,5.9625 0.4052,9.0335 0.8782,3.3064 2.3398,4.6145 3.0664,6.7026 2.0055,1.4878 3.3182,3.1318 5.8299,4.2452 2.4283,1.0764 4.9581,1.4704 7.8003,1.2744 7.5987,-0.5237 9.3989,-1.7129 13.3853,-5.6252 l -2.5375,0.9641 c -1.1692,2.2768 -3.7229,3.0838 -6.9939,3.2442 1.5571,-1.5025 3.1263,-2.0327 4.404,-4.1051 1.5214,-3.1952 2.5121,-2.1587 2.7272,-2.1486 1.0214,0.0483 1.0246,-1.3385 2.4445,1.6787 l 1.8284,-2.6125 c 0.5343,-1.8241 0.1428,-2.0534 2.0249,-2.2012 l -1.0555,-1.0367 0.5955,-3.2151 2.4234,0.1137 c 0.5189,3.5334 -0.4625,4.0347 -0.5206,3.9076 -0.0357,-0.0782 -0.1711,0.1989 -0.2422,0.3087 l 2.8145,-0.1116 -1.4405,-0.3328 0.2497,-3.5728 6.4398,2.7247 -2.6829,0.5493 c -0.0884,0.029 -0.2876,0.2865 -0.3488,0.1784 -0.0583,-0.1025 -0.2136,0.1266 -0.3173,0.195 2.8358,-0.5688 1.9336,0.3003 4.3244,1.1868 4.1017,2.5773 9.9606,1.0038 14.1614,-0.3544 l 3.4473,-2.6386 5.2203,0.0958 -0.002,1.8138 c 0.7043,1.5671 0.9704,4.306 1.7672,6.2747 3.7076,9.1602 8.7404,9.4676 11.3441,11.7635 3.3113,0.2609 4.7258,1.0406 8.7901,0.7397 2.9581,-0.219 5.8171,-1.2224 8.6764,-1.0469 1.1037,-1.2034 2.9428,-1.6188 4.2552,-2.5721 4.8903,-3.5527 6.5352,-10.5862 7.5308,-11.9012 l 5.0244,0.0344 c -0.145,-0.0964 -0.4563,-0.345 -0.5183,-0.3967 l -0.5572,-5.1649 7.5162,3.6085 -2.2183,1.1239 c 8.6772,-1.0714 6.8932,1.693 13.0978,3.066 4.5928,1.0163 10.5898,-0.5442 14.6055,-1.6022 5.1624,-3.3301 2.2772,-2.2952 9.0969,-2.4834 3.6702,-0.1012 6.6488,-2.2011 8.306,-3.897 3.3997,-3.4791 6.4183,-9.792 8.0733,-15.9879 0.8859,-3.3265 2.9782,-17.9099 3.504,-19.0459 l -0.0679,-1.1874 -0.0719,-0.7686 0.0206,-0.6942 0.1979,-7.0642 -0.1881,-10.3098 0.0228,-1.4195 -0.9875,-7.7072 -0.7454,-5.497 -1.9166,-10.9048 -1.7583,-6.425 -0.4624,-1.7032 0.1136,-0.5421 c -2.0087,-3.4423 -3.1784,-10.8936 -9.3332,-21.0793 -10.0095,-16.5652 -17.6993,-11.7205 -29.9542,-8.9645 -11.7345,2.6388 -6.7331,0.2938 -12.3835,1.2117 -5.025,0.8164 -6.6293,3.1687 -11.0254,4.1696 -3.9118,0.8908 -8.0865,1.962 -12.0697,2.6786 z" />
          <path
             inkscape:connector-curvature="0"
             id="path5953"
             style="fill:#000000;fill-rule:evenodd;stroke-width:0.97581822"
             d="m 505.7895,202.8958 c -0.2034,-2.3549 0.1492,-2.8827 1.2538,-4.2963 2.4448,0.2696 2.5919,1.0549 3.4254,3.4199 0.723,2.0514 0.9342,3.8413 1.1655,6.1374 l -2.3984,7.4553 c -3.3955,-1.1498 -3.8976,-8.0235 -4.0272,-11.3185 0.1154,-2.5174 -0.029,-0.677 0.5809,-1.3978 z m 1.5529,12.8669 c -2.8879,-0.9311 -3.7312,-4.3083 -4.1694,-7.5387 -0.6938,-5.1157 0.2719,-5.5737 2.5827,-9.495 -1.8753,7.5036 -1.4402,10.8385 1.5867,17.0337 z m -4.8718,-10.9488 -0.241,4.2057 c 0.0895,0.1082 0.1967,0.1506 0.2263,0.355 0.03,0.2058 0.1726,0.276 0.2113,0.3671 0.039,0.0922 0.1367,0.2726 0.181,0.3882 1.1065,2.8931 -0.1806,0.7319 2.2699,5.6737 -5.671,0.5663 -7.4671,0.6706 -8.3124,-5.2318 l -0.5135,-2.097 c -0.1799,-3.5884 -0.1469,-5.4147 1.6446,-8.2054 l 5.4603,-0.6871 z m -6.7397,5.7391 7.2701,6.2557 c -2.0192,6.1572 -6.651,3.0916 -8.5347,-0.8907 -1.227,-2.5936 -3.6,-11.4968 -1.2226,-14.0886 -0.1309,-5.832 4.8733,-8.062 8.0213,-3.2774 -2.3918,1.7697 -3.7377,-0.244 -5.1408,3.59 -0.9513,2.599 -0.6869,5.5412 -0.3933,8.411 z m -4.276,-53.8263 c 1.889,1.0379 5.0494,6.8523 6.0242,8.5956 6.7611,12.0907 7.9564,19.4125 12.2161,33.3215 l -7.2763,0.4148 c -8.8783,-13.489 -15.1015,10.6739 -6.6118,20.2269 1.1109,1.2501 3.0196,2.4793 5.2035,1.4093 1.4032,-0.6874 2.7399,-3.563 3.5397,-4.0003 l 6.7533,-1.5029 -9.3238,43.9207 C 486.829,247.7789 476.8757,173.3886 491.4549,156.7267 Z m 1.5208,-1.6484 c 0.3583,-0.6622 -0.0648,-0.3065 0.6321,-0.9137 0.774,-0.6745 0.05,-0.1364 1.118,-0.4605 0.6725,-0.8449 -0.8804,-0.0533 1.4298,-1.1905 1.2304,-0.6056 0.4646,-0.3162 1.6402,-0.4496 1.3459,-0.1528 2.5705,-8e-4 3.4689,0.4778 l 1.1856,0.3086 c 1.9008,0.9184 3.1432,1.9571 4.3036,3.1949 0.8964,0.9563 0.9451,1.001 1.8378,1.8267 1.2737,1.1781 0.8395,-0.2353 1.4305,2.4469 3.4532,6.801 5.6768,10.9606 7.9587,19.5444 2.0446,7.6908 3.4311,15.7521 4.3018,23.9245 1.3139,12.3299 1.5431,27.0619 -0.8715,39.3207 l -2.1366,8.3445 c -0.6033,1.6578 -0.3085,1.4128 -1.4494,2.3583 -0.1359,1.6512 -0.7839,2.8612 -1.7102,4.4237 -0.3773,0.6364 -0.8311,1.2975 -1.3062,1.8391 -1.1978,1.3656 -0.636,1.0083 -2.0486,1.4379 -0.9065,1.2626 0.336,0.6815 -1.953,1.1775 l -2.4063,0.4086 c -1.8283,-0.3374 -0.8991,-0.1127 -1.8642,-0.8109 l -0.5038,0.1401 -1.564,-1.1511 c -1.6084,-0.412 -1.4259,0.002 -1.3188,-1.954 12.0059,-28.1054 12.8532,-54.3394 1.0585,-82.9514 -3.04,-7.3744 -6.13,-12.7008 -10.4105,-18.9241 -0.2557,-0.3718 -0.5685,-0.7436 -0.7486,-1.2438 l -0.1072,-0.854 c -0.003,-0.0417 0.002,-0.1853 0.0334,-0.2706 z m 4.0246,-3.9042 c -25.8502,6.2096 -12.1858,117.5207 13.7839,112.8585 7.7504,-1.3913 11.3534,-16.5688 12.5776,-25.7478 2.7426,-20.5639 -0.0721,-48.7917 -7.2387,-68.0712 -2.8446,-7.6526 -9.5328,-21.343 -19.1228,-19.0395 z" />
          <path
             inkscape:connector-curvature="0"
             id="path5955"
             style="fill:#000000;fill-rule:evenodd;stroke-width:0.97581822"
             d="m 438.5949,185.9938 c 1.262,0.8578 -0.3234,-0.5132 0.5988,0.6459 l -8.6974,18.4731 10.2178,-12.4009 c -1.8683,3.3098 -1.1732,2.0408 -3.1431,4.7682 -4.859,6.728 -4.629,9.6237 -7.4232,15.0718 l -6.901,0.0934 3.1552,-16.4045 c 1.3155,-2.2717 2.5241,-4.1782 3.9281,-6.0109 1.6483,-2.1516 2.7977,-3.8895 6.3604,-3.5101 -1.3941,-1.0603 -2.7993,-0.5616 -4.8579,-0.2424 -8.5149,1.3202 -8.1639,0.3227 -8.875,6.8356 -0.6106,5.5924 -1.4249,14.5439 -0.0631,19.4396 l 4.2573,0.3817 c 3.2605,0.01 11.1854,-0.4457 13.5159,-1.52 1.2025,-7.1189 -0.2635,-15.9895 1.2919,-24.0581 -0.2877,-2.0052 0.4738,-0.7267 -0.7095,-2.1659 -1.059,-0.0505 -1.3422,-0.1948 -2.5109,0.1174 -1.6654,0.4449 -1.8922,-0.0394 -0.1443,0.4861 z" />
          <path
             inkscape:connector-curvature="0"
             id="path5957"
             style="fill:#000000;fill-rule:evenodd;stroke-width:0.97581822"
             d="m 397.186,193.3415 c -1.7353,-1.0978 -7.8302,0.029 -9.8013,1.0259 -0.8653,5.489 -2.677,13.7065 -1.7761,19.1869 0.4721,2.8728 1.3245,1.9356 4.2876,2.1119 1.6044,0.0622 10.2957,0.209 11.0162,-1.6255 l 1.0839,-19.1273 0.114,-2.6568 c -2.2656,-0.1421 -3.0081,0.1395 -3.5981,0.555 l 1.3642,0.216 -7.2629,15.1901 1.2769,-1.601 c 0.326,-0.4753 0.421,-0.7006 0.813,-1.2915 1.5967,-2.4067 3.8611,-5.6707 6.3651,-6.8003 -6.8749,10.3869 -6.6268,12.9051 -8.9771,16.6964 l -5.5145,-0.1944 2.3146,-13.4162 c 0.2907,-0.8341 4.3428,-8.4774 8.2945,-8.2692 z" />
          <path
             inkscape:connector-curvature="0"
             id="path5959"
             style="fill:#000000;fill-rule:evenodd;stroke-width:0.97581822"
             d="m 437.1023,263.2393 c 5.7866,-2.1953 9.1071,7.657 3.7161,10.184 -6.0188,2.8209 -10.093,-7.7645 -3.7161,-10.184 z m -1.0875,-2.1038 c -8.5351,3.5803 -2.8129,18.0466 5.4698,14.5538 8.4267,-3.5532 2.8909,-18.0611 -5.4698,-14.5538 z" />
          <path
             inkscape:connector-curvature="0"
             id="path5961"
             style="fill:#000000;fill-rule:evenodd;stroke-width:0.97581822"
             d="m 364.4006,199.8189 -5.1741,11.3029 6.6289,-7.7151 c -0.2566,1.6733 -0.4717,1.3171 -1.6841,2.7674 -2.0904,2.5008 -4.1348,6.9269 -4.9669,10.1418 l 0.1181,0.6669 6.5294,-0.7647 0.9548,-17.2446 -1.3472,-0.5432 z" />
          <path
             inkscape:connector-curvature="0"
             id="path5963"
             style="fill:#000000;fill-rule:evenodd;stroke-width:0.97581822"
             d="m 365.0892,267.3027 c -2.0072,-1.7527 -1.8391,-4.3173 -0.6902,-5.9339 4.9888,-7.0196 12.8137,10.1586 0.7332,6.8976 l 2.3785,-0.3226 c 0.972,-0.002 1.4572,-0.0955 2.2779,-0.2889 l -0.3977,-6.0791 c -2.7032,2.0697 -1.8474,1.7341 -3.885,2.1425 l -1.3032,0.1933 z m -3.1637,-2.8681 c 0.5312,8.1295 11.5443,8.3437 11.2104,0.0673 -0.3353,-8.3146 -11.7537,-8.3823 -11.2104,-0.0673 z" />
          <path
             inkscape:connector-curvature="0"
             id="path5965"
             style="fill:#000000;fill-rule:evenodd;stroke-width:0.97581822"
             d="m 434.5645,267.088 c -0.2659,11.846 14.2744,3.3884 6.1628,-2.4014 -3.3425,2.0148 -0.9485,3.1226 -6.1628,2.4014 z" />
          <path
             inkscape:connector-curvature="0"
             id="path5967"
             style="fill:#000000;fill-rule:evenodd;stroke-width:0.97581822"
             d="m 506.6201,206.1696 c 0.3405,3.1244 0.1177,5.4412 2.806,6.453 1.0469,-1.326 1.1348,-2.2013 1.1499,-4.4658 -0.0229,-1.577 -0.0477,-2.5707 -0.5914,-4.0907 -0.6572,-1.8369 -0.7848,-1.9699 -2.3178,-2.354 -1.2856,1.5231 -1.0592,2.2512 -1.0467,4.4575 z" />
          <path
             inkscape:connector-curvature="0"
             id="path5969"
             style="fill:#000000;fill-rule:evenodd;stroke-width:0.97581822"
             d="m 353.6226,215.7553 c 0.948,-5.3037 -0.2499,-4.412 2.3589,-9.397 1.1782,-2.2513 3.0757,-5.3248 4.7797,-6.4967 -1.4007,-0.8181 -4.5848,-0.2077 -5.8867,0.7529 l -0.9622,15.1843 z" />
          <path
             inkscape:connector-curvature="0"
             id="path5971"
             style="fill:#000000;fill-rule:evenodd;stroke-width:0.97581822"
             d="m 380.8876,258.1644 c 2.4583,3.4484 0.7257,1.2445 1.2648,1.381 0.0208,0.005 0.1535,0.01 0.1765,0.0134 0.0222,0.004 0.1469,0.008 0.17,0.01 l 3.8432,0.6794 -0.1047,-1.5687 c -0.2972,-1.2467 -0.3285,-1.6127 -0.8634,-2.7394 -0.0431,-0.0908 -0.4994,-0.9118 -0.5569,-0.9922 -0.7354,-1.0253 -0.7187,-0.7034 -0.8816,-0.8062 l -0.7852,0.3541 0.1602,-0.4472 c 0.8773,1.0774 0.7896,0.9311 1.0872,2.1249 -1.8142,1.1359 -1.3752,-0.4341 -2.3652,1.971 l -0.9332,-1.0112 z" />
          <path
             inkscape:connector-curvature="0"
             id="path5973"
             style="fill:#e7e5d4;fill-rule:evenodd;stroke-width:0.97581822"
             d="m 426.8318,164.5869 c -0.4104,2.9606 -0.6914,1.2571 -1.2733,3.6195 l -2.9602,11.3383 5.5202,-12.746 -2.8445,12.7098 5.9214,-13.8311 -3.0459,11.5655 5.2092,-10.7924 -2.5244,10.7782 5.2342,-11.1551 -2.5047,11.3962 5.5174,-12.5077 -2.6254,10.2899 c 0.3057,-0.379 0.3638,-0.4147 0.7374,-1.1171 0.3088,-0.5804 0.4084,-0.869 0.6665,-1.5312 1.5553,-3.9907 1.8073,-4.137 3.8961,-7.9828 l -2.8439,12.74 6.3077,-14.7255 -3.4392,12.5279 5.6517,-11.9847 -2.9125,12.2596 c 3.2173,-7.6946 1.4938,-4.8467 5.9854,-13.3667 l -3.0472,11.4211 c 0.6872,-0.8699 0.2337,-0.1272 0.8283,-1.4051 2.6835,-5.7675 1.5849,-4.2757 5.6979,-11.9153 -0.7767,1.665 -4.4876,8.3786 -2.6082,10.0913 1.9356,-5.8407 6.4316,-12.8744 9.5363,-15.9406 -4.7931,0.4367 -12.9715,2.8006 -18.0525,3.9591 -7.4566,1.6999 -12.3511,1.684 -16.0278,6.3049 z" />
          <path
             inkscape:connector-curvature="0"
             id="path5975"
             style="fill:#e7e5d4;fill-rule:evenodd;stroke-width:0.97581822"
             d="m 392.1351,169.7435 c -1.1742,1.6963 -1.0009,0.9845 -2.1341,2.1351 -0.6459,0.6557 -1.3541,1.6653 -2.0545,2.5912 -1.0447,1.3807 -2.4914,3.5977 -2.8402,6.0041 l -0.8567,4.5992 5.6472,-11.9688 -2.972,11.9439 c 1.017,-1.859 1.7343,-4.5559 2.7197,-6.7729 l 3.3138,-6.262 -3.3017,13.3151 5.4798,-12.5776 -2.5947,10.3369 c 0.2673,-0.3493 0.3579,-0.4407 0.7091,-1.1198 0.3041,-0.5884 0.4032,-0.8745 0.6593,-1.5349 1.5942,-4.1117 1.7499,-4.0718 3.9065,-8.0484 l -2.5988,10.6721 5.2297,-10.8494 -2.5697,10.7987 5.6507,-12.0688 -2.9116,12.3153 c 3.2394,-8.562 1.9997,-5.971 6.3855,-14.2858 l -3.7186,14.2388 5.9319,-13.7211 -2.1655,10.0213 c 2.2292,-4.7725 1.0676,-3.2339 4.8112,-10.2183 l -2.9638,11.9742 c 2.2624,-4.5093 2.3063,-6.0943 6.4894,-13.8888 -0.2299,0.8355 -0.1792,0.1486 0.8566,0.449 0.9287,-0.5535 2.8624,-3.159 3.4545,-4.205 z" />
          <path
             inkscape:connector-curvature="0"
             id="path5977"
             style="fill:#e7e5d4;fill-rule:evenodd;stroke-width:0.97581822"
             d="m 468.2213,155.7586 c -0.6318,1.6045 -1.4581,2.8254 -2.2561,4.3013 0.0584,0.0105 0.1665,-0.035 0.1757,0.0284 l 0.4954,0.2762 -2.8753,11.0555 c 1.023,-1.6516 1.7475,-4.3988 2.6058,-6.3732 l 3.035,-5.6752 -2.9606,12.0195 5.5763,-12.2073 -2.846,12.4713 5.1046,-11.8669 -2.2195,9.6253 c 0.0853,-0.1146 0.1956,-0.4422 0.2298,-0.3612 0.034,0.08 0.1772,-0.2747 0.2222,-0.36 0.0231,-0.0434 0.3103,-0.5701 0.3902,-0.741 2.2347,-4.7849 1.1653,-3.3777 4.836,-10.2098 l -3.0129,11.6382 5.6525,-11.9793 -2.9765,11.919 6.7021,-12.6131 c 2.1621,-2.6498 3.564,-7.4149 6.5283,-9.1238 -2.7264,0.0419 -9.3122,1.9184 -12.4588,2.6331 -6.1907,1.4062 -7.0769,1.6829 -9.9482,5.543 z" />
          <path
             inkscape:connector-curvature="0"
             id="path5979"
             style="fill:#e7e5d4;fill-rule:evenodd;stroke-width:0.97581822"
             d="m 436.6905,186.7198 c -3.5627,-0.3794 -4.7121,1.3585 -6.3604,3.5101 -1.404,1.8327 -2.6126,3.7392 -3.9281,6.0109 l -3.1552,16.4045 6.901,-0.0934 c 2.7942,-5.4481 2.5642,-8.3438 7.4232,-15.0718 1.9699,-2.7274 1.2748,-1.4584 3.1431,-4.7682 l -10.2178,12.4009 8.6974,-18.4731 c -0.9222,-1.1591 0.6632,0.2119 -0.5988,-0.6459 -0.6135,0.503 1.111,0.7636 -1.9044,0.726 z" />
          <path
             inkscape:connector-curvature="0"
             id="path5981"
             style="fill:#e7e5d4;fill-rule:evenodd;stroke-width:0.97581822"
             d="m 449.757,182.6811 4.3078,8.7723 1.2176,-1.4047 0.1031,-2.3742 c 0.6877,-7.8 2.0275,-14.2685 4.491,-21.6571 1.1895,-3.5671 2.3563,-6.0804 4.1808,-8.9449 1.7036,-2.6747 4.4437,-4.8672 6.5446,-6.6922 -6.8292,1.2667 -11.5119,7.2803 -14.4358,12.3475 -2.003,3.4712 -7.0565,15.399 -6.4091,19.9533 z" />
          <path
             inkscape:connector-curvature="0"
             id="path5983"
             style="fill:#e7e5d4;fill-rule:evenodd;stroke-width:0.97581822"
             d="m 397.186,193.3415 c -3.9517,-0.2082 -8.0038,7.4351 -8.2945,8.2692 l -2.3146,13.4162 5.5145,0.1944 c 2.3503,-3.7913 2.1022,-6.3095 8.9771,-16.6964 -2.504,1.1296 -4.7684,4.3936 -6.3651,6.8003 -0.392,0.5909 -0.487,0.8162 -0.813,1.2915 l -1.2769,1.601 7.2629,-15.1901 -1.3642,-0.216 c -0.2965,0.6028 1.3985,0.6603 -1.3262,0.5299 z" />
          <path
             inkscape:connector-curvature="0"
             id="path5985"
             style="fill:#e7e5d4;fill-rule:evenodd;stroke-width:0.97581822"
             d="m 410.5392,185.8271 c 0.9851,2.3806 2.3215,4.4059 4.5828,4.7413 -0.0813,-4.6204 3.5095,-17.0647 5.6566,-21.3205 0.9697,-1.9219 3.0698,-5.3265 4.3789,-6.6872 l 2.4269,-2.1351 c -4.8644,0.658 -9.2948,6.3799 -11.4465,9.8655 -1.8741,3.036 -6.0618,11.5454 -5.5987,15.536 z" />
          <path
             inkscape:connector-curvature="0"
             id="path5987"
             style="fill:#e7e5d4;fill-rule:evenodd;stroke-width:0.97581822"
             d="m 373.9959,190.8191 c 0.0335,3.212 1.4105,4.4657 4.005,5.8434 1.0036,-5.9692 1.7475,-9.9291 3.7504,-15.6889 2.4718,-7.1078 4.0518,-7.4444 6.6411,-10.7974 0.9557,-1.2373 1.727,0.002 0.0408,-1.0887 -4.9257,2.3746 -6.6217,4.4919 -9.3734,8.5805 -1.7122,2.5441 -5.2654,9.5951 -5.0639,13.1511 z" />
          <path
             inkscape:connector-curvature="0"
             id="path5989"
             style="fill:#e7e5d4;fill-rule:evenodd;stroke-width:0.97581822"
             d="m 360.7612,199.8616 c -1.704,1.1719 -3.6015,4.2454 -4.7797,6.4967 -2.6088,4.985 -1.4109,4.0933 -2.3589,9.397 1.7244,0.8614 3.5814,0.8258 5.5818,0.5606 0.8321,-3.2149 2.8765,-7.641 4.9669,-10.1418 1.2124,-1.4503 1.4275,-1.0941 1.6841,-2.7674 l -6.6289,7.7151 5.1741,-11.3029 c -0.4157,-0.2458 0.583,-0.5955 -1.8661,-0.4019 -0.4263,0.0338 -1.3067,0.325 -1.7733,0.4446 z" />
          <path
             inkscape:connector-curvature="0"
             id="path5991"
             style="fill:#e7e5d4;fill-rule:evenodd;stroke-width:0.97581822"
             d="m 368.8298,175.1563 -3.8288,13.9348 5.5859,-12.3712 -2.8556,12.7009 5.9128,-13.8072 -2.2265,10.0872 c 2.6098,-5.696 1.1498,-3.4946 5.2941,-11.133 -0.6335,1.5681 -4.2659,9.5278 -2.7412,11.2898 1.0128,-2.4543 1.7892,-4.6621 3.1368,-6.9978 1.5548,-2.6946 3.4106,-4.4299 4.5069,-6.5157 z" />
          <path
             inkscape:connector-curvature="0"
             id="path5993"
             style="fill:#e7e5d4;fill-rule:evenodd;stroke-width:0.97581822"
             d="m 341.5937,196.6348 c 0.4064,2.022 1.6474,4.1987 3.4334,4.1993 1.1407,-5.4623 2.7658,-13.8682 5.7683,-18.3852 1.46,-2.1965 3.3542,-5.0851 5.6864,-5.8569 -4.9052,1.0392 -7.5919,4.0395 -9.8537,7.3349 -1.7458,2.5438 -5.1102,8.9506 -5.0344,12.7079 z" />
          <path
             inkscape:connector-curvature="0"
             id="path5995"
             style="fill:#e7e5d4;fill-rule:evenodd;stroke-width:0.97581822"
             d="m 357.6913,177.7719 c 0.1253,1.2796 0.5442,0.5843 -0.3845,1.4167 l -3.2676,11.9783 5.5656,-12.4712 -2.8845,12.4101 5.4999,-12.5918 -2.8197,12.5052 5.4994,-12.8616 -2.629,10.6915 c 0.0828,-0.1199 0.1936,-0.4536 0.2285,-0.3728 l 1.1969,-2.6916 c 1.5012,-4.0887 2.3192,-5.0191 4.5575,-8.8734 -1.2876,-1.2537 0.3443,-0.8779 -1.8985,-0.6914 -2.7543,-0.2784 -5.7926,0.9506 -8.664,1.552 z" />
          <path
             inkscape:connector-curvature="0"
             id="path5997"
             style="fill:#e7e5d4;fill-rule:evenodd;stroke-width:0.97581822"
             d="m 434.5645,267.088 c 5.2143,0.7212 2.8203,-0.3866 6.1628,-2.4014 8.1116,5.7898 -6.4287,14.2474 -6.1628,2.4014 z m 2.5378,-3.8487 c -6.3769,2.4195 -2.3027,13.0049 3.7161,10.184 5.391,-2.527 2.0705,-12.3793 -3.7161,-10.184 z" />
          <path
             inkscape:connector-curvature="0"
             id="path5999"
             style="fill:#e7e5d4;fill-rule:evenodd;stroke-width:0.97581822"
             d="m 391.7993,269.6216 -2.8145,0.1116 -1.2006,-0.0782 c -1.8821,0.1478 -1.4906,0.3771 -2.0249,2.2012 2.2523,-0.016 10.424,0.1192 12.2644,-1.306 -2.3908,-0.8865 -1.4886,-1.7556 -4.3244,-1.1868 z" />
          <path
             inkscape:connector-curvature="0"
             id="path6001"
             style="fill:#e7e5d4;fill-rule:evenodd;stroke-width:0.97581822"
             d="m 412.1851,270.1958 c 0.6077,1.2188 5.9911,0.4407 7.6234,0.4167 1.411,-0.3818 0.3236,0.4926 1.0424,-1.1457 l 0.002,-1.8138 -5.2203,-0.0958 z"
             transform="translate(11.5192,-54.4229)" />
        </g>
      </g>
    </g>
  </g>
</svg>
